<?xml version="1.0" encoding="UTF-8" standalone="no"?>
<svg id="svg4156" xmlns:rdf="http://www.w3.org/1999/02/22-rdf-syntax-ns#" xmlns="http://www.w3.org/2000/svg" height="331.88" viewBox="0 0 1127.8125 331.875" width="1127.8" version="1.1" xmlns:cc="http://creativecommons.org/ns#" xmlns:dc="http://purl.org/dc/elements/1.1/">
<path id="path4166" d="m535.55 329.45c-3.8116-3.004-4.1804-7.4361-0.87707-10.539 2.8878-2.7129 8.6033-2.8062 10.018-0.16342 1.7827 3.331 3.75 2.2914 3.75-1.9817 0-10.188-4.5279-12.683-28.125-15.499-23.155-2.7631-38.319-22.666-27.049-35.502 4.2996-4.897 3.0207-5.0742-9.9821-1.3833-16.251 4.613-40.574 2.6669-54.102-4.3286-1.956-1.0115-3.1332-1.1638-3.8048-0.49228-0.67153 0.67153-0.23095 1.3102 1.4239 2.0642 4.7397 2.1596 3.9899 14.047-1.0564 16.748-5.1488 2.7556-10.185 2.3694-13.597-1.0424-2.9248-2.9248-3.8263-5.0202-5.6443-13.119-2.7507-12.254-20.707-14.942-32.004-4.791l-4.3572 3.9152 0.30272 6.5527c0.33933 7.3452-0.26351 8.8042-2.3066 5.5821-8.0311-12.665 4.5989-26.581 25.849-28.48 7.7754-0.69492 8.7779-1.4655 4.6875-3.6034-3.7857-1.9786-25.077-24.556-27.813-29.493-7.6745-13.849-22.302-19.05-29.916-10.636-4.1055 4.5366 0.8799 11.164 6.7354 8.9539 3.4449-1.3003 4.8262-0.51203 3.8188 2.1793-2.6182 6.9951-22.375 4.909-30.487-3.2191-4.9639-4.9737-11.438-16.496-21.253-37.826-1.8025-3.9169-4.8053-9.3432-6.673-12.058-1.8677-2.7152-3.3958-5.3019-3.3958-5.7484 0-11.075-35.603-19.91-50.886-12.627-10.345 4.9301-21.3 16.73-12.772 13.757 17.494-6.0985 33.022 15.169 19.427 26.608-5.3347 4.4888-14.657 4.1532-14.075-0.5068 0.91749-7.3538 0.80386-7.7475-2.4854-8.6111-9.4924-2.4922-12.253 13.469-4.2985 24.852 13.568 19.416 46.093 18.685 47.992-1.0779 0.91133-9.4843-8.1675-13.035-12.261-4.7945-2.6708 5.3766-8.1406 2.7055-8.1406-3.9753 0-19.081 24.257-16.338 25.988 2.9394 2.2277 24.806-31.433 34.053-54.113 14.866-31.868-26.96 0.76866-80.472 43.627-71.531 16.51 3.4445 35.123 14.873 35.123 21.566 0 2.2366 3.0819 2.522 5.7702 0.53437 1.4252-1.0537 3.2254-1.9159 4.0004-1.9159 7.576 0 13.383-5.1259 12.307-10.863-1.2474-6.6489 5.8747-1.2538 7.8809 5.97 2.5154 9.0573 0.83713 13.327-9.1211 23.205-8.5177 8.4494-9.4554 10.62-7.8698 18.215 1.647 7.8897 8.5947 16.789 8.5947 11.009 0-15.28 22.237-22.23 34.441-10.765 2.8139 2.6435 2.6745 1.101-0.58975-6.5291-1.4909-3.485-5.1297-12.34-8.0861-19.678-2.9564-7.3381-5.9553-13.823-6.6642-14.412-0.70892-0.58835-1.2889-1.5053-1.2889-2.0377 0-1.521-11.691-18.501-15.958-23.177-2.1172-2.3203-4.8803-5.6953-6.1402-7.5-1.26-1.8047-3.6588-4.4252-5.3308-5.8233-7.4852-6.2591-12.592-9.9173-14.759-10.573-1.2891-0.38977-2.7656-1.0135-3.2812-1.386-1.0169-0.73462-7.7411-2.4913-12.07-3.1532-4.8206-0.73711-8.6922 1.0702-13.273 6.1961-12.057 13.49-33.768 10.252-23.377-3.4871 2.2288-2.9468 1.6358-3.4886-3.0767-2.8112-6.692 0.96188-12.869 9.6662-12.233 17.237l0.27999 3.3315h4.9943c7.2565 0 10.104 4.441 5.5526 8.6594-8.5526 7.9267-18.5-4.5418-14.293-17.916 4.2247-13.432 13.772-18.869 33.133-18.869 8.5412 0 10.629-0.20828 7.9688-0.79488-1.9828-0.43719-6.9326-1.5973-11-2.5781-19.04-4.5916-42.474-1.5777-62.918 8.0923-10.332 4.8871-10.769 5.3439-8.1944 8.5669 6.4987 8.1346 7.1302 9.7323 7.1619 18.12 0.0205 5.4201-0.41545 8.7184-1.363 10.312-2.738 4.6064-6.8889 10.797-7.8633 11.728-9.6915 9.2562-12.726 17.266-9.483 25.029 2.2847 5.4681 3.7522 5.9992 6.0087 2.1747 3.0536-5.1755 13.086-4.4319 15.241 1.1296 3.8301 9.884-9.6354 17.768-18.63 10.908-7.3783-5.6277-10.214-19.848-5.3782-26.974 3.0182-4.4476 3.1009-4.3093-2.2029-3.6811-7.8597 0.93086-12.221-4.292-9.5194-11.399 1.7709-4.6579 4.4588-5.2415 13.407-2.9107 12.09 3.149 19.347-6.252 15.143-19.617-1.9204-6.1054-2.9935-6.3666-5.8203-1.4163-2.7396 4.7978-7.4823 6.4729-13.524 4.7767-7.7628-2.1794-8.2652-2.2268-8.2652-0.77977 0 0.75619-1.2422 3.0897-2.7604 5.1855-4.4622 6.1599-9.109 16.273-9.766 21.254-0.33564 2.5446-1.305 5.687-2.1542 6.983-1.8121 2.7656-1.8962 22.8-0.12647 30.109 3.5649 14.724 19.099 22.674 25.75 13.178 4.1892-5.9809 18.971-4.3744 22.208 2.4137 1.902 3.9886 1.9289 5.4154 0.13015 6.9083-2.0176 1.6744-1.7344 2.8111 0.70312 2.8217 6.8933 0.0299 18.399 8.911 20.461 15.794 3.1187 10.409-8.5091 21.545-16.441 15.746-2.4812-1.8143-0.97644-3.4235 3.2015-3.4235 8.4921 0 12.594-9.7321 6.5448-15.528-2.7999-2.6825-3.0841-2.7449-11.016-2.4188-4.4779 0.18407-12.149 0.37855-17.048 0.43218l-8.9062 0.0975-8.0018-4.3828c-7.2753-3.9848-10.487-6.874-13.762-12.38-1.7769-2.9874-1.4144-0.97216 1.2295 6.8344 5.6969 16.821 19.827 33.896 28.071 33.922 6.2841 0.0194 8.8694 2.2776 8.8694 7.7475 0 3.9512 8.745 8.7287 23.423 12.796 11.402 3.1596 12.477 2.8744 8.9206-2.366-5.4619-8.0485 0.54924-17.255 11.266-17.255 5.135 0 8.379 2.2246 11.621 7.9694 3.823 6.774 5.9861 7.7811 11.947 5.5623 18.474-6.8762 22.921-26.657 5.993-26.657-4.3346 0-4.9928-1.4666-1.29-2.8744 14.644-5.5675 19.813 20.187 6.2892 31.335-6.6082 5.447-1.2738 3.6689 17.516-5.8388 26.351-13.334 47.051-7.5602 44.039 12.283-1.8669 12.302-20.747 16.688-20.649 4.7975 0.0421-5.0826 8.864-8.2229 11.453-4.077 3.2262 5.1659 8.0693-1.7912 5.3535-7.6903-4.5513-9.886-22.372-10.598-38.746-1.5486-0.97299 0.53775-3.2582 1.8141-5.0782 2.8364-27.273 15.318-72.981 14.753-90.357-1.1174-2.7452-2.5073-6.2134-3.73-10.58-3.73-2.7006 0-5.1844-2.7903-5.1844-5.8241 0-2.2576-3.4731-6.1846-8.9606-10.132-8.6145-6.1965-23.852-41.622-23.852-55.453 0-3.2493-0.23486-3.6934-1.6406-3.1025-3.5617 1.4971-5.9529 1.5404-8.0807 0.14615-2.175-1.4251-2.2943-1.3488-5.3266 3.4067-3.9856 6.2506-14.988 20.702-16.089 21.132-0.46458 0.18164-1.7728 1.2363-2.9072 2.3438-3.2942 3.2159-8.4347 6.8438-10.722 7.5668-1.6303 0.51539-2.1094 1.3741-2.1094 3.781 0 6.2945-8.3969 10.355-14.576 7.0482-5.5067-2.9471-11.674 2.1484-11.674 9.6448 0 8.0283-23.893 10.263-28.594 2.6738-3.3161-5.3539-1.4553-10.245 2.3547-6.1894 2.766 2.9443 6.5247 3.0106 9.2006 0.16224 3.5299-3.7574 2.011-5.2456-5.4616-5.3508-11-0.15485-23.873-6.0937-31.164-14.377-22.27-25.299-22.155-53.84 0.27824-69.074 19.907-13.519 48.238-8.8442 55.779 9.2037l1.3463 3.2222 3.3038-2.9007c5.7957-5.0887 14.367-5.0992 19.443-0.0236l2.7436 2.7436-0.31787 10.498-0.31786 10.498 2.4465 0.8754c3.9234 1.4039 7.0711 0.1274 7.723-3.1318 0.69022-3.4512 3.4243-3.8963 3.4243-0.55759 0 8.3543-10.882 11.87-15.868 5.1261-1.9101-2.5835-2.0726-3.5473-1.4999-8.8953 0.67764-6.3278-0.46854-8.0908-2.4429-3.7575-1.3793 3.0271-4.5857 4.3221-10.702 4.3221-4.3763 0-5.1121 0.2534-5.1121 1.7605 0 16.842-29.374 25.285-34.528 9.924-2.4259-7.2301 1.1697-18.247 5.9553-18.247 3.6123 0 3.4874 1.474-0.48583 5.7349-4.3129 4.6252-4.2308 4.2857-2.2412 9.2582 4.6454 11.61 23.959 8.562 27.184-4.29 7.0363-28.035-29.696-46.768-53.421-27.244-11.448 9.4208-11.513 21.077-0.18094 32.652 8.7783 8.9668 7.32 15.533-3.237 14.576-6.0341-0.54715-6.2632-0.32295-4.8117 4.708 0.825 2.8595 13.715 15.773 18.643 18.678 8.1785 4.8203 25.56 7.0499 25.56 3.2787 0-4.292-6.2148-7.0554-9.7886-4.3524-3.9757 3.0071-4.7396-0.41076-0.99445-4.4497 6.6635-7.1863 20.998-3.5026 25.407 6.5293 2.2518 5.1235 6.8453 3.047 8.814-3.9844 2.0006-7.1454 7.7647-9.1345 14.03-4.8415l3.1958 2.1898 3.3715-1.9554c15.739-9.1286 24.673-21.854 43.974-62.635 3.5933-7.5923 8.6056-16.874 11.139-20.625 8.1132-12.017 7.9148-11.551 6.7548-15.858-1.5374-5.7095 1.7387-11.843 7.3196-13.703 5.0058-1.6686 4.9656-2.209-0.36221-4.8698-13.638-6.8111-30.02 4.8347-24.142 17.162 4.1209 8.6415-3.8672 17.878-12.593 14.56-3.0532-1.1608-3.9046-2.4092-3.9232-5.7525-0.0156-2.8186-2.9978-3.7086-4.4209-1.3194-5.0372 8.4569-21.923 8.5512-28.397 0.15872-8.5739-11.113-0.32532-25.68 11.174-19.733 7.4654 3.8605 3.451 14.489-4.9941 13.223-7.5723-1.1355-6.336 5.4352 1.6196 8.6084 4.9206 1.9626 21.213-3.8346 21.271-7.5686 0.0265-1.713 4.4352-7.0236 11.997-14.451 12.644-12.42 26.823-14.14 40.908-4.9633 6.99 4.5542 6.9148 4.5494 11.495 0.73344 3.2444-2.703 6.4599-4.3879 16.677-8.7383 18.059-7.6896 53.434-7.3953 75.469 0.62773 12.167 4.4303 29.443 15.208 35.915 22.407 4.0065 4.4562 6.2721 5.8109 6.2721 3.7504 0-2.3798 3.8609-4.6875 7.8423-4.6875 5.5517 0 9.0327 2.7359 9.0327 7.0993 0 4.0454 1.2243 4.0514 5.25 0.0257 6.8695-6.8695 2.4094-14.829-11.344-20.244-17.062-6.7178-21.804-14.189-16.465-25.946 4.8654-10.716 23.971-5.8146 20.112 5.1593-1.1543 3.2821-4.1151 3.931-4.1151 0.9018 0-5.5966-6.1547-8.3345-11.041-4.9117-6.6068 4.6276-0.96888 15.093 10.573 19.626 16.511 6.4845 20.938 12.525 18.342 25.03-1.4136 6.809-8.0873 12.948-14.076 12.948-2.2588 0-2.7525 4.1074-0.64232 5.344 0.70358 0.41234 1.9688 2.099 2.8115 3.7481 0.84276 1.6491 2.7416 4.8132 4.2197 7.0312 3.5489 5.3257 15.65 31.261 16.535 35.439 0.99955 4.7166 3.3429 10.312 4.3186 10.312 1.086 0 1.0572-0.36785-0.55179-7.0312-5.5587-23.021 3.1411-55.493 17.651-65.882 16.979-12.157 30.163-13.722 40.649-4.8251 9.3761 7.9554 4.7143 23.607-5.7314 19.242-7.5787-3.1666-7.2203-12.011 0.55106-13.6 7.4702-1.5278-0.56342-6.6532-10.428-6.6532-16.372 0-28.541 14.002-29.331 33.75-0.41023 10.249-0.60384 11.107-3.9196 17.368-1.9185 3.6229-3.7268 8.4744-4.0185 10.781l-0.53042 4.1942 3.1696-3.4753c1.7433-1.9114 4.6242-4.2558 6.4021-5.2096 3.0585-1.6409 3.318-2.1779 4.8206-9.9752 3.2392-16.809 18.737-24.308 29.667-14.354 5.5023 5.0105 2.73 16.608-3.97 16.608-3.125 0-3.1015-2.7113 0.049-5.6711 4.3625-4.0984 1.569-9.3289-4.9823-9.3289-9.3284 0-10.828 8.8538-3.3639 19.854 6.1896 9.1217 6.891 10.823 6.891 16.712 0 8.6979-2.7925 13.566-9.1453 15.943-7.1396 2.6713-10.07 1.1544-7.2609-3.7589 4.3035-7.5282-5.6182-15.765-12.305-10.215-5.7207 4.7478-6.0021 7.2927-2.39 21.613 1.7176 6.8097 12.703 23.793 18.67 28.862 12.131 10.307 16.068 12.494 14.863 8.2551-4.8054-16.895 0.72543-28.879 12.792-27.716 4.5911 0.4423 4.3135 3.8087-0.37695 4.5711-10.359 1.6838-14.424 12.541-6.4418 17.203 3.2494 1.8978 5.3701 1.6717 12.744-1.3583 5.1045-2.0974 9.6254-0.52455 11.714 4.0752 3.5636 7.8493 1.1332 13.2-6.6127 14.559-3.8035 0.66716-3.988 0.81286-1.875 1.4801 1.2891 0.40705 4.0312 1.4979 6.0938 2.4241 2.308 1.0364 8.2564 2.0836 15.469 2.7231 21.954 1.9467 49.443-2.6898 38.114-6.4286-4.988-1.6462-7.9712-4.4288-8.6548-8.0728-1.6826-8.9692 6.8549-13.784 14.831-8.3634 5.4499 3.7033 6.0743 5.9384 3.8579 13.81-0.72058 2.5592 1.9822 2.0204 8.2288-1.6406 3.0792-1.8047 5.9191-3.2812 6.3109-3.2812 1.1975 0 17.978-13.031 20.269-15.739 1.1823-1.398 3.4616-3.9091 5.0652-5.5802 3.4808-3.6272 3.8043-5.4279 0.80625-4.4873-6.389 2.0045-12.452 2.2694-15.703 0.68618-4.0081-1.952-4.5489-5.1977-0.9375-5.626 6.6501-0.78872 10.388-4.8836 13.438-14.722 2.3998-7.7411 2.4867-11.113 0.29767-11.548-2.2461-0.44629-7.1729 4.2656-7.1729 6.86 0 6.9757-16.677 13.759-26.344 10.715-11.518-3.6263-20.736-16.074-16.347-22.076 1.392-1.9037 3.3164-0.9699 3.3164 1.6093 0 7.7137 8.8218 13.459 16.934 11.029 7.2382-2.1686 8.483-8.712 2.2226-11.683-9.1645-4.3488-8.8566-15.838 0.56629-21.134 4.7754-2.684 5.1284-6.5934 0.9949-11.018-4.6854-5.0157-9.7355-3.5671-14.018 4.0208-6.8696 12.172-21.673 14.803-25.932 4.6091-4.9098-11.751 4.9892-24.811 17.668-23.31l4.8458 0.57362-3.1545-1.4336c-1.735-0.78849-3.6623-1.4336-4.283-1.4336-2.671 0-10.839-2.9866-13.959-5.1044l-3.3905-2.3009-5.6532 5.4296c-6.335 6.0844-7.2012 7.7727-2.4957 4.8646 7.028-4.3435 13.607-2.1497 8.4629 2.8219-5.1942 5.0196-6.707 8.2378-7.8667 16.736-2.0793 15.236-11.021 20.687-21.59 13.162l-3.0757-2.1901-2.0897 2.6207c-2.503 3.1391-2.3539 15.5 0.28016 23.228 3.0273 8.8817 12.807 15.733 22.457 15.733 10.408 0 14.975-11.394 4.948-12.345-6.3661-0.60401-4.4283-11.668 2.4405-13.935 15.464-5.1035 24.297 13.001 12.136 24.874-16.916 16.516-40.68 6.0856-52.093-22.865-9.2855-23.553 12.722-59.167 36.563-59.167 4.4999 0 5.5094-1.369 2.9891-4.0538-8.6707-9.2364-7.2092-24.245 3.013-30.943 4.6197-3.027 8.3745-1.0561 4.7993 2.5191-0.83033 0.83033-1.4062 3.1217-1.4062 5.5949 0 6.9345 4.2898 9.88 20.156 13.84 24.548 6.1266 32.58 17.253 29.145 40.373-0.75394 5.0739-0.68684 5.3524 1.5811 6.5625 3.0537 1.6294 9.5608 9.5247 12.016 14.58 2.7902 5.7439 9.9383 6.8991 19.462 3.1452 6.0276-2.3759 8.9048-2.3874 13.733-0.055 8.1961 3.959 15.614 1.0664 19.006-7.4111 2.7849-6.9606 5.9493-10.339 11.01-11.754l3.7336-1.0443 0.56246-10.754c1.1541-22.067 8.0615-29.974 29.438-33.699 13.318-2.3206 15.622-3.437 18.235-8.8348l2.0111-4.1544-1.9357-3.5958-1.9357-3.5958 2.467-0.30699c8.0628-1.0034 13.216 16.418 7.694 26.012l-2.0824 3.6183 3.1842 2.682c1.7513 1.4751 6.9188 4.4582 11.483 6.6291 8.4365 4.0125 18.211 12.29 20.426 17.297 0.5335 1.2061 1.9592 3.5452 3.1682 5.1981 13.502 18.457 4.1225 53.192-17.098 63.321-21.968 10.486-47.227-13.902-30.466-29.414 10.704-9.9071 26.829-2.6533 24.282 10.923-1.1971 6.3811-8.9639 8.8616-8.9639 2.8629 0-6.1125-7.4768-5.5335-9.7187 0.75262-5.946 16.672 28.921 15.859 35.432-0.82533 3.1736-8.1326 3.9516-18.286 1.9286-25.168-2.1725-7.3902-2.6195-7.8211-5.6451-5.4411-9.2627 7.286-21.06-3.7486-21.06-19.699 0-3.7444-4.5047-11.876-8.3503-15.073-3.7918-3.1526-2.1666-4.8417 2.9621-3.0785 4.4271 1.522 4.5931 0.35359 0.63242-4.4514-3.4071-4.1334-3.9058-4.2358-5.5615-1.1422-1.5256 2.8506-10.123 5.6437-20.367 6.617-8.4522 0.803-8.0577 1.8915 0.89735 2.4762 12.635 0.82501 20.346 8.1948 20.395 19.492 0.0645 14.909-23.483 15.077-27.729 0.19874-2.6889-9.4217-9.0199-12.602-14.858-7.4644-4.8486 4.2667-4.2724 7.4964 2.0192 11.318 12.214 7.4197 11.614 22.197-0.90158 22.197h-5.5718l1.7327 2.6388c4.5071 6.8641 4.7489 7.0487 9.2319 7.0487 5.399 0 8.8804-2.4544 10.798-7.6125 2.174-5.848 5.6091-6.1644 5.6091-0.51662 0 17.26-33.898 22.594-43.716 6.8791-4.3075-6.8947-7.5147-8.7207-10.551-6.0074-0.6209 0.55488 1.9544 6.0176 3.174 6.7327 1.617 0.94806 5.1553 8.1666 5.1553 10.517 0 6.4785 5.1539 11.257 12.141 11.257 3.9346 0 4.4755 0.72957 2.8261 3.8116-1.529 2.857-9.7178 2.2294-18.864-1.446-6.9348-2.7867 12.903 19.965 21.709 24.898 1.8047 1.0109 5.3906 3.0668 7.9688 4.5686 7.2042 4.1966 10.206 3.8384 7.5-0.89484-3.5574-6.223 0.18473-11.465 8.2682-11.581 7.0116-0.10135 9.2105 1.9166 9.7972 8.991l0.41638 5.021-3.9631 2.6227c-12.088 7.9998 38.376 11.553 56.529 3.9807l3.0148-1.2577-3.2812-1.4236c-6.5318-2.8339-9.1641-7.6729-7.5117-13.809 1.783-6.6214 10.391-9.2994 16.425-5.1097 5.0655 3.5176 6.0406 3.5028 9.4796-0.14366 5.1923-5.5054 3.7857-13.179-2.7148-14.81-2.7616-0.69312-3.4244-2.8823-1.1382-3.7596 9.227-3.5407 15.404 15.934 8.351 26.328-1.5582 2.2961-1.999 3.6341-1.2768 3.8749 0.60678 0.20226 1.3708-0.0467 1.6979-0.55321 0.32708-0.50653 2.059-1.6717 3.8487-2.5892 19.864-10.184 34.537-46.284 22.12-54.421-5.9005-3.8662-12.736 1.5995-8.1307 6.5015 5.8088 6.1832-6.05 9.9596-13.845 4.4089-8.5785-6.1084-6.6775-18.013 5.2162-32.666 5.3756-6.6228 6.2216-11.734 2.6458-15.984-4.4193-5.2521-10.953-4.5528-12.342 1.3209-0.9895 4.184-2.6872 5.1038-3.4932 1.8924-0.97852-3.8987 1.3694-9.2656 4.7219-10.793 12.368-5.6354 29.203 13.307 25.944 29.193-0.40832 1.9905-0.17372 2.5781 1.0293 2.5781 3.848 0 6.6367 5.0485 8.5446 15.469l0.68663 3.75 1.2676-4.6875c1.6179-5.9828 0.46556-12.285-4.0281-22.031-2.8779-6.2418-3.2223-7.8207-3.067-14.062 0.42841-17.218 0.45106-17.034-2.8037-22.754-6.3802-11.213-21.757-18.574-30.489-14.595-2.7926 1.2724-2.8802 1.8031-0.92215 5.5895 3.6128 6.9864-3.0214 13.376-10.398 10.015-8.7481-3.9859-2.6746-19.821 8.399-21.898 32.41-6.0801 62.397 41.192 48.727 76.815-0.43696 1.1387-0.19814 1.3872 0.92061 0.9579 0.83085-0.31883 1.5113-1.2728 1.5122-2.12 0.005-4.7212 21.581-43.163 27.781-49.496 5.2021-5.3141 5.2953-5.9398 0.88954-5.9712-10.994-0.0783-19.038-10.967-16.495-22.327 2.8153-12.58 8.5174-16.42 26.261-17.683 9.288-0.66149 12.189-2.5851 12.184-8.0794-0.008-9.509-7.4402-13.484-12.589-6.733-4.0479 5.3071-6.9219 3.7852-5.1271-2.7149 2.8672-10.384 18.73-6.8448 22.27 4.9691 2.8214 9.417-4.1211 15.843-17.27 15.986-11.52 0.12496-21.053 6.507-21 14.06 0.0498 7.1166 4.2604 10.217 6.5075 4.7924 2.7881-6.7311 17.838-4.7231 17.838 2.38 0 2.5086 3.3951 1.2824 7.0754-2.5552 8.0928-8.4389 21.772-16.943 37.456-23.287 27.442-11.099 71.104-7.098 91.406 8.3759 6.8229 5.2002 8.1003 5.5164 11.495 2.8459 12.295-9.6709 35.777-7.3388 44.399 4.4094 15.476 21.087 22.875 25.8 33.523 21.351 5.444-2.2747 4.9163-6.0812-0.8431-6.0812-6.9123 0-8.4348-7.6573-2.2165-11.148 7.2191-4.052 15.918 4.3455 12.637 12.199-5.1608 12.351-21.734 14.285-32.666 3.8115-3.2602-3.1236-3.5156-3.2159-3.5156-1.2718 0 3.294-4.5216 11.374-6.9959 12.501-6.9133 3.1499-12.459-6.3725-9.0035-15.461 2.5317-6.659-1.0282-15.537-7.2932-18.19-6.9202-2.9297-12.184-3.894-15.802-2.8951l-3.4347 0.94837 3.3962 2.9557c7.3709 6.4148 9.5275 12.263 7.0494 19.116-0.94566 2.6152-0.90469 3.553 0.23437 5.3698 0.7591 1.2107 3.241 5.2991 5.5155 9.0855 2.2744 3.7863 5.4764 8.9936 7.1156 11.572 4.912 7.7258 8.9053 14.611 8.9053 15.355 0 0.38451 0.84375 2.4455 1.875 4.5799s1.875 4.3607 1.875 4.9473c0 1.0864 8.4156 18.608 10.547 21.96 12.417 19.525 22.893 28.445 29.765 25.345 5.7823-2.6075 12.798 2.8437 10.699 8.3132-1.9342 5.0407 6.2927 3.6563 8.5935-1.446 4.3399-9.6241 21.634-10.881 26.843-1.9513 2.326 3.988 0.7589 5.1402-4.537 3.3357-4.7326-1.6126-6.9111-0.66568-6.9111 3.0039 0 6.2318 18.147 2.3828 31.875-6.7606 14.651-9.7586 20.339-19.026 11.676-19.026-11.231 0-12.702-12.043-2.7826-22.787 7.5435-8.1705 2.4253-21.483-10.95-28.481-15.219-7.9618-40.064 2.3505-41.074 17.048-1.1881 17.283 5.556 26.642 19.224 26.679 12.681 0.034 18.799-15.256 7.5989-18.989-4.2766-1.4256-5.1293-3.8006-1.5052-4.1929 6.0524-0.65509 11.855 6.5473 10.822 13.433-2.8584 19.061-30.154 19.407-37.582 0.47538-2.7309-6.9604-3.2367-7.481-5.0945-5.2425-2.8943 3.4874-10.901 2.8944-13.243-0.98097l-1.5039-2.4884-4.4102 5.7314c-4.3284 5.6251-10.221 7.9359-13.043 5.1146-0.9196-0.91965 1.2368-3.1331 3.0525-3.1331 3.7678 0 5.1123-2.3498 5.7782-10.099 1.276-14.848 13.858-22.752 22.819-14.333 2.5028 2.3512 4.886 2.0966 5.8458-0.62468 3.0877-8.7551 15.098-14.787 29.442-14.787 41.321 0 54.87 53.893 19.835 78.894-9.8659 7.0401-14.647 8.7556-31.624 11.346-4.8865 0.74568-5.7662 1.6875-3.1297 3.3506 1.1118 0.70127 2.6269 0.62988 5.2907-0.24928 5.9683-1.9697 8.5566 2.6104 3.3888 5.9965-9.4685 6.204-24.828 1.9737-27.204-7.4925-0.7842-3.1246-7.8742-5.8565-11.231-4.3272-6.1703 2.8114-13.522-0.95788-13.522-6.9329 0-2.4-0.6125-3.5569-2.5617-4.8385-8.5188-5.6014-21.935-22.1-28.494-35.041-5.3515-10.558-11.104-12.079-11.149-2.9477-0.0375 7.6506-3.6651 24.491-6.7024 31.118-1.056 2.304-2.2667 5.101-2.6904 6.2156-0.83719 2.2019-7.4639 12.384-12.448 19.127-1.7152 2.3203-5.9222 6.3281-9.3488 8.9062-4.7144 3.5471-6.506 5.5562-7.3639 8.2584-1.2744 4.0141-3.6899 5.7554-6.8749 4.956-1.3979-0.35086-4.8818 0.71874-9.9908 3.0673-32.497 14.938-63.338 12.395-99.585-8.2128-13.113-7.4551-27.907-8.0551-30.322-1.2297-0.31106 0.87905-1.1558 2.288-1.8771 3.1311-1.1445 1.3376-1.0067 1.8749 1.0821 4.2188 2.3372 2.6226 2.4268 2.6428 3.8038 0.85779 3.1844-4.1281 10.773-1.4957 10.773 3.737 0 6.9008-13.008 7.6517-17.365 1.0024-13.699-20.907 20.356-28.318 47.073-10.244 2.9117 1.9698 11.383 5.4674 15.761 6.5072 2.9055 0.69013 2.202-1.5155-1.1719-3.6739-0.64453-0.41234-1.1719-1.1788-1.1719-1.7032 0-0.52441-0.98405-2.2964-2.1868-3.9378-6.1418-8.3818-5.6565-18.903 1.1875-25.747 5.6028-5.6028 17.006-2.8474 17.699 4.277 0.37191 3.8194-0.16528 3.7837-3.983-0.2643-7.6571-8.1189-16.401 0.16178-14.06 13.315 2.4806 13.937 20.351 20.844 25.249 9.7582 2.3457-5.3089 2.8064-5.9909 5.3106-7.8605 9.965-7.44 23.806 6.7706 16.282 16.717-3.0397 4.0189-0.59167 4.2478 9.434 0.88231 3.84-1.2891 7.5142-2.3438 8.1647-2.3438 1.7416 0 13.758-6.5402 13.895-7.5627 0.0645-0.48113 0.22265-1.2967 0.35156-1.8123 0.12891-0.51562 0.28711-1.3292 0.35156-1.808 0.32622-2.4233 3.3154-3.817 8.1869-3.817 5.5977 0 16.521-9.0195 20.519-16.943 0.89175-1.7674 2.8316-4.4906 4.3107-6.0516 6.3881-6.7422 4.1871-11.33-2.4851-5.1802-7.7209 7.1169-18.722 8.919-30.771 5.0405-9.6983-3.1219-19.331 0.76871-19.331 7.8079 0 3.3222 1.807 4.8431 7.0312 5.9182 3.9085 0.8043 3.664 3.233-0.3641 3.6178-5.6312 0.53793-7.5916-0.50431-9.6342-5.1219-4.3557-9.8468 2.3783-20.025 13.248-20.025h4.6827l-0.56219-4.1016c-2.2963-16.754 17.44-22.639 24.766-7.385 7.5373 15.695 24.282-1.1147 25.986-26.087 1.5128-22.174-10.833-56.506-19.684-54.741-10.888 2.1711-15.243 0.5933-18.75-6.7933-2.9569-6.2277-5.3985-4.9909-7.2116 3.6529-2.2127 10.549 3.7904 16.351 17.427 16.843 14.407 0.52004 18.844 11.442 6.3361 15.599-3.4376 1.1424-3.9939 1.6659-3.5658 3.3553 0.279 1.1009 0.99647 3.9001 1.5943 6.2204 2.2747 8.8278-4.0092 20.638-11.754 22.091-7.7542 1.4547-14.545-2.4525-14.545-8.3687 0-8.1316 13.125-11.274 15.959-3.8211 2.0376 5.3595 6.5526 0.79381 6.5202-6.5937-0.0291-6.7136-2.6882-11.726-9.8113-18.494-12.895-12.254-16.66-24.452-9.9234-32.156 0.90169-1.0312 2.1428-3.1543 2.7579-4.7179 0.61514-1.5636 2.178-4.0759 3.473-5.583 3.872-4.5061 2.8753-6.046-7.1005-10.971-28.727-14.184-63.653-15.956-86.25-4.3781-5.7803 2.9617-5.1216 3.4434 1.5922 1.164 10.704-3.6342 30.82-0.23372 39.191 6.6249 11.812 9.6787 10.853 27.216-1.672 30.589-10.31 2.7761-18.729-4.6007-12.435-10.895 4.1324-4.1324 9.8864-2.6666 9.8864 2.5185 0 3.1199 1.0249 3.8669 4.209 3.0678 3.0207-0.75815 5.5088-6.1727 4.7389-10.313-1.7086-9.1889-17.385-16.962-17.385-8.6199 0 10.581-14.6 11.965-22.126 2.0981-9.1973-12.058-27.345-6.7812-48.556 14.119-6.4172 6.3233-15.853 16.942-16.385 18.437-0.19148 0.5388-2.1662 3.6352-4.3883 6.881-4.3592 6.3673-14.326 25.273-18.523 35.135-1.4263 3.3516-3.2778 7.4674-4.1145 9.1462-1.9789 3.9707-1.0745 4.7055 3.2449 2.6365 14.805-7.0914 33.952 3.487 30.586 16.898-1.1842 4.7182 1.8441 1.9313 5.2574-4.8383 5.5932-11.093 4.4302-19.994-3.7081-28.38-12.117-12.485-14.165-20.773-7.8596-31.796 3.8523-6.734 14.45-9.0178 19.307-4.1606 2.6724 2.6724 1.6101 5.1677-1.6691 3.9209-4.1072-1.5616-6.7455-1.0822-8.8636 1.6105-3.793 4.822-0.74862 9.796 7.4156 12.116 3.2766 0.93104 6.4642 2.6712 8.5464 4.6657 4.1603 3.985 4.2017 3.9809 6.5656-0.6526 8.6362-16.928 32.849-30.038 52.871-28.627 54.511 3.8418 59.561 84.335 5.1456 82.018-23.971-1.0207-40.33-27.142-27.072-43.227 9.9993-12.131 28.154-4.0806 21.929 9.7238-2.6218 5.8141-9.7912 8.1472-9.7912 3.1863 0-2.7783-3.4268-5.332-6.1865-4.6103-5.023 1.3135-6.448 11.087-2.4924 17.094 0.90619 1.3763 2.1126 3.3442 2.6808 4.3733 4.3662 7.9067 25.8 11.534 34.61 5.8564 11.084-7.1424 15.86-17.948 11.095-25.105-4.9118-7.3768-12.476-6.1649-11.133 1.7837 0.69779 4.1302-0.91487 5.9025-4.5665 5.0186-9.933-2.4044-12.801-23.746-3.8586-28.709 1.0272-0.57005 3.0634-1.9857 4.5251-3.1458 3.1757-2.5207 9.05-2.808 14.118-0.69055 5.5876 2.3347 4.6003-1.5298-1.9949-7.8077-23.073-21.963-59.287-9.7766-73.31 24.67-12.978 31.88-29.903 49.014-47.537 48.124-10.043-0.50716-16.154-7.3426-6.564-7.3426 5.5564 0 7.3807-2.1006 6.9976-8.057-0.80877-12.574-17.716-10.022-26.851 4.0533-10.634 16.385-23.386 28.886-33.673 33.01-4.9838 1.9978-3.5454 2.6501 5.625 2.5508 23.462-0.25407 42.494 26.466 24.238 34.028-5.3946 2.2345-9.69-0.11302-4.6376-2.5346 1.3408-0.64265 3.5712-2.6543 4.9564-4.4704l2.5185-3.3019-2.2913-5.0049c-7.5085-16.401-24.872-15.464-33.92 1.8301-2.9346 5.6091-3.9102 6.3905-10.429 8.3522-9.5404 2.8712-17.688-8.0963-12.023-16.184 1.7966-2.565 1.4464-2.5982-8.156-0.77168-20.114 3.8258-29.159 3.6674-47.605-0.83368-7.3038-1.7822-8.6132-0.92123-5.0482 3.3194 4.0304 4.7943 3.8957 15.081-0.2653 20.256-4.0326 5.0158-15.214 10.179-27.104 12.515-18.49 3.6333-27.42 11.086-25.815 21.545 0.6518 4.2463 3.118 4.8176 4.6658 1.0808 2.7506-6.6406 13.09-4.9803 13.358 2.145 0.46721 12.428-20.879 12.303-22.352-0.13068-1.6889-14.26 14.059-29.334 30.647-29.334 3.4724 0 11.298-2.6198 12.325-4.1258 1.0811-1.5863-0.13213-2.4366-3.4765-2.4366-3.3294 0-9.821-4.6209-9.821-6.9908 0-0.84228-1.3293-1.0438-4.7301-0.71701-4.0148 0.38578-5.0781 0.1276-7.0312-1.7073-3.5695-3.3534-2.5714-10.272 1.4819-10.272 2.1444 0 2.3747 1.2084 0.57367 3.0094-1.5791 1.5792-0.36882 5.4281 1.7069 5.4281 1.6379 0 5.1865-3.2482 5.1865-4.7476 0-7.5054 7.7799-14.527 14.996-13.534 6.5288 0.89793 6.7986-0.91194 0.54809-3.6762-2.8483-1.2597-7.1947-3.6899-9.6586-5.4006-2.4639-1.7106-5.175-3.5321-6.0247-4.0478-5.039-3.0578-7.4248-5.1262-12.049-10.446-2.8359-3.2626-5.9161-6.8036-6.8448-7.8691-0.92871-1.0654-1.9972-2.6538-2.3743-3.5298-3.253-7.5553-5.4709-9.0269-6.2861-4.1708-0.84494 5.0332-2.2191 9.3647-4.7674 15.028-2.9644 6.5876-2.8225 8.5087 1.0539 14.269 4.771 7.0897 4.1189 8.5032-3.0028 6.5092-11.926-3.3391-21.675-23.497-16.258-33.617 0.57525-1.0749 0.88575-1.9543 0.68999-1.9543-1.0299 0-5.3108 4.5882-6.5604 7.0312-4.3164 8.4392-20.983 22.624-33.13 28.197-8.7251 4.0027-9.329 5.0846-2.8385 5.0846 8.0021 0 10.642 1.5864 14.196 8.5316 4.2332 8.2726 9.8168 9.1485 9.8592 1.5465 0.0109-1.9589 0.47027-2.5781 1.9126-2.5781 3.7434 0 4.3121 7.693 0.73775 9.9795-2.8301 1.8103-7.7312 2.9615-10.616 2.4934-2.5036-0.40628-3.2948-0.11607-4.1768 1.5319-1.6144 3.0166-6.5835 5.6753-10.614 5.6793-7.1963 0.007 5.3178 8.7819 15.517 10.88 16.078 3.3076 21.437 6.4426 25.616 14.986 5.7975 11.85-6.5708 25.283-16.253 17.653zm20.861-157.43c-6.4767-3.523-10.602-10.962-11.095-20.007-0.24552-4.5029-0.81774-6.1907-2.9571-8.7221-17.395-20.582 10.318-44.898 37.077-32.532 12.591 5.8184 16.8 23.242 7.8432 32.465-2.5677 2.6439-3.2139 4.0596-3.2139 7.0411 0 16.129-15.532 28.348-27.654 21.754zm-5.9359-71.987c-0.54451-0.65609-1.804-3.0772-2.799-5.3803-4.2613-9.8641-16.054-17.882-16.156-10.984-0.17801 12.045-13.567 17.279-22.177 8.669-3.2984-3.2984-3.6831-5.3266-2.0952-11.045 3.3911-12.211-11.874-14.109-38.027-4.7276-8.4758 3.0405-18.387 3.389-22.5 0.79122-12.685-8.0119-11.804-23.922 1.3241-23.922 9.9987 0 12.957 9.176 3.92 12.158-4.4651 1.4736-6.6504 0.32954-6.6504-3.4818 0-1.977-0.22003-2.1611-1.4062-1.1767-3.1707 2.6315-0.70014 9.6781 4.2849 12.221 6.9089 3.5246 13.974 2.2526 31.282-5.6324 24.925-11.354 67.458 6.1965 73.068 30.151 0.65932 2.8153-0.54812 4.1922-2.0691 2.3596zm12.546-1.8333c-0.25011-1.1602-1.0677-6.1172-1.8169-11.016-1.96-12.815-5.6313-20.083-14.667-29.034-15-14.86-12.097-27.343 3.8711-16.647 2.8294 1.8952 4.6282 4.7107 8.2214 12.868 1.3461 3.056 0.51186-4.2568-1.4973-13.125-2.4556-10.839-2.5622-18.114-0.38241-26.087 1.0816-3.9567 2.413-8.9869 2.9585-11.178 0.88-3.5537 1.28-3.978 3.75-3.978 3.0148 0 2.8044-0.48286 4.4924 10.312 0.52406 3.3516 1.4831 9.0717 2.1312 12.711 1.1245 6.3155 1.0426 7.1804-1.7943 18.938-4.0924 16.962-3.9138 24.803 0.25072 11.006 2.0262-6.7129 6.3653-13.1 9.7772-14.392 7.7358-2.9298 13.267-1.5061 11.84 3.0475-0.33947 1.0833-0.84954 2.9516-1.1335 4.1518-0.28395 1.2002-3.5194 5.232-7.1899 8.9595-11.189 11.363-14.547 19.137-15.335 35.499-0.4743 9.847-2.2123 13.831-3.4761 7.9688zm12.269 1.4589c-4.9008-4.9008 11.337-25.791 24.214-31.151 12.603-5.2467 32.931-5.7444 44.764-1.096 24.586 9.6581 41.03 8.3239 41.044-3.33 0.005-4.0332-2.3847-4.812-4.1703-1.3591-2.5539 4.9387-9.2189 4.4308-9.7202-0.74076-0.82468-8.5065 14.761-10.465 18.471-2.3212 6.3115 13.852-13.284 23.214-34.372 16.422-2.9486-0.94965-7.2595-2.3207-9.5798-3.0469-13.298-4.1616-22.5-0.99765-22.5 7.7364 0 5.4334-1.6298 9.0002-5.6633 12.394-8.9606 7.5398-22.964-4.5001-18.875-16.229 0.87759-2.5174 0.79207-2.8782-0.68222-2.8782-5.1758 0-18.746 14.92-20.242 22.255-0.63971 3.1368-1.645 4.3876-2.6879 3.3446z"/>
</svg>
