<?xml version="1.0" encoding="UTF-8" standalone="no"?>
<!-- Created with Inkscape (http://www.inkscape.org/) -->

<svg
   xmlns:dc="http://purl.org/dc/elements/1.1/"
   xmlns:cc="http://creativecommons.org/ns#"
   xmlns:rdf="http://www.w3.org/1999/02/22-rdf-syntax-ns#"
   xmlns:svg="http://www.w3.org/2000/svg"
   xmlns="http://www.w3.org/2000/svg"
   xmlns:sodipodi="http://sodipodi.sourceforge.net/DTD/sodipodi-0.dtd"
   xmlns:inkscape="http://www.inkscape.org/namespaces/inkscape"
   id="svg3416"
   version="1.1"
   inkscape:version="0.91 r13725"
   width="816.5625"
   height="437.8125"
   viewBox="0 0 816.5625 437.8125"
   sodipodi:docname="Divider38.svg">
  <metadata
     id="metadata3422">
    <rdf:RDF>
      <cc:Work
         rdf:about="">
        <dc:format>image/svg+xml</dc:format>
        <dc:type
           rdf:resource="http://purl.org/dc/dcmitype/StillImage" />
        <dc:title></dc:title>
      </cc:Work>
    </rdf:RDF>
  </metadata>
  <defs
     id="defs3420" />
  <sodipodi:namedview
     pagecolor="#ffffff"
     bordercolor="#666666"
     borderopacity="1"
     objecttolerance="10"
     gridtolerance="10"
     guidetolerance="10"
     inkscape:pageopacity="0"
     inkscape:pageshadow="2"
     inkscape:window-width="1600"
     inkscape:window-height="837"
     id="namedview3418"
     showgrid="false"
     inkscape:zoom="1.3948718"
     inkscape:cx="408.28125"
     inkscape:cy="218.90625"
     inkscape:window-x="-8"
     inkscape:window-y="-8"
     inkscape:window-maximized="1"
     inkscape:current-layer="svg3416" />
  <path
     style="fill:#000000"
     d="m 405.08013,436.50279 c -0.63454,-0.76456 -1.39496,-4.58016 -1.68984,-8.47912 -0.40894,-5.40716 -1.06006,-7.79914 -2.74446,-10.08223 -1.22897,-1.66576 -2.20833,-4.31536 -2.20833,-5.97446 0,-1.63968 -0.63281,-4.77482 -1.40625,-6.96698 -0.77344,-2.19216 -1.40625,-4.98739 -1.40625,-6.21162 0,-2.72855 -2.69625,-2.96381 -8.08864,-0.7058 -5.13209,2.14902 -18.76778,1.37763 -22.53226,-1.27469 -1.46319,-1.03092 -3.63279,-2.17648 -4.82133,-2.5457 -4.95386,-1.5389 -1.35439,-3.29661 14.31187,-6.98886 9.30273,-2.19248 14.07844,-4.95724 17.7738,-10.28966 2.16652,-3.12629 3.33323,-8.54617 1.8397,-8.54617 -0.31865,0 -2.02083,1.26562 -3.78262,2.8125 -1.7618,1.54687 -3.92686,2.8433 -4.81127,2.88094 -0.8844,0.0377 -3.86694,0.38954 -6.62787,0.78199 -9.56106,1.35908 -18.41321,-1.20975 -23.28346,-6.75664 -6.46199,-7.35981 -8.60665,-12.95624 -9.5106,-24.81767 l -0.62357,-8.18237 -4.69268,-1.50326 c -4.88396,-1.56454 -15.24206,-7.00814 -16.86982,-8.86579 -2.28489,-2.60758 -7.9945,-6.1185 -12.24792,-7.53143 -3.28871,-1.09245 -5.64397,-2.74419 -8.14271,-5.71045 C 300.48835,307.95165 300,306.72709 300,302.72983 c 0,-3.31926 0.65872,-5.68556 2.31157,-8.30386 l 2.31158,-3.66177 -2.38194,-6.86648 c -2.17699,-6.27562 -2.32943,-7.70432 -1.77158,-16.60349 0.57661,-9.19835 0.51567,-9.69482 -1.1015,-8.97434 -7.14495,3.18325 -19.08309,-0.007 -20.88129,-5.57854 -2.48649,-7.70538 -1.0821,-13.91733 6.27173,-27.74135 4.86721,-9.14959 5.24187,-10.30653 5.31286,-16.40625 0.042,-3.60938 -0.50388,-8.56641 -1.21311,-11.01563 -1.41482,-4.88592 -3.0394,-5.54263 -8.25041,-3.3351 -1.45154,0.61492 -7.9126,1.3532 -14.35791,1.64063 l -11.71875,0.5226 3.28125,1.98336 c 2.06881,1.25048 4.31575,3.94888 6.08093,7.3027 l 2.79967,5.31935 -2.70014,5.15718 c -1.48508,2.83646 -3.71126,5.95255 -4.94708,6.92465 -2.42251,1.90553 -9.73273,3.78151 -14.73565,3.78151 -4.90454,0 -15.74892,-4.32218 -18.19235,-7.25079 -3.21037,-3.84789 -7.68038,-12.98023 -7.68038,-15.69122 0,-2.94591 -0.46839,-2.95083 -4.27819,-0.045 -6.3776,4.86443 -20.91268,7.39742 -25.81872,4.49934 -1.49358,-0.88223 -2.71559,-2.29836 -2.71559,-3.14692 0,-1.28202 1.42416,-1.62404 8.4243,-2.02317 11.1135,-0.63366 17.15684,-3.52488 21.96733,-10.5095 1.8471,-2.68192 3.35837,-5.27152 3.35837,-5.75468 0,-1.51236 -4.75614,-6.08807 -7.35533,-7.07628 -1.3799,-0.52463 -4.82764,-0.67248 -7.75611,-0.33259 -9.50568,1.10325 -18.63856,-4.48377 -18.63856,-11.40209 0,-1.74215 0.51795,-3.99691 1.151,-5.01058 1.28777,-2.06205 0.76406,-3.23294 -6.20014,-13.86233 -3.68813,-5.62913 -4.00087,-5.86903 -7.13836,-5.47565 -1.80469,0.22628 -6.72368,1.4795 -10.93111,2.78494 -6.27385,1.9466 -9.81511,2.40812 -19.6875,2.56581 -12.87125,0.20559 -13.33336,0.0979 -22.35014,-5.20697 -3.09375,-1.82017 -9.22317,-5.2864 -13.62095,-7.70272 -6.33591,-3.48123 -8.86615,-5.53363 -12.187497,-9.88589 -2.305355,-3.0209 -5.14816,-6.70409 -6.317346,-8.18485 -1.169186,-1.48076 -3.207272,-4.94293 -4.52908,-7.69371 -1.321808,-2.75077 -3.185348,-6.47796 -4.141201,-8.28265 C 78.716824,100.38281 76.399322,91.734375 74.522671,82.96875 70.653979,64.89852 70.604274,64.766525 65.176968,58.150257 60.593064,52.562155 56.373373,49.693042 52.711716,49.674698 48.855706,49.655382 45.9375,48.668077 45.9375,47.382803 c 0,-1.237531 5.892267,-3.320303 9.393307,-3.320303 2.398471,0 11.77981,4.153244 14.219493,6.295159 2.67658,2.349897 3.510255,0.666387 2.175546,-4.393258 C 69.391313,37.114603 59.548052,23.933943 51.072115,18.307937 44.386598,13.870343 38.802049,12.152552 30.817594,12.077705 c -5.099358,-0.0478 -6.864643,0.362501 -9.84375,2.287973 -5.773307,3.731434 -8.5589,6.84357 -11.585389,12.943495 C 6.0759295,33.985608 5.7668474,38.364342 8.4375,40.78125 c 1.03125,0.933268 1.875,2.288001 1.875,3.010517 0,0.722516 1.968535,2.184441 4.374523,3.248724 3.896214,1.723482 5.03176,1.826153 10.385474,0.939013 7.000842,-1.160076 8.242702,-1.977373 9.036675,-5.947242 0.774449,-3.872241 -0.71776,-5.469762 -5.109185,-5.469762 -2.388303,0 -4.419715,-0.719772 -6.092619,-2.158744 -2.269182,-1.951868 -2.443544,-2.550258 -1.819459,-6.244183 0.389532,-2.305619 1.645749,-5.040958 2.883547,-6.278756 3.979288,-3.979288 8.478135,-2.453925 13.594779,4.609398 2.387665,3.296073 2.746265,4.613146 2.746265,10.086516 0,4.514791 -0.464041,6.930837 -1.640625,8.541978 -0.902344,1.235614 -2.103458,3.085476 -2.669143,4.110805 -1.297297,2.351409 -11.768301,6.214378 -16.883206,6.228562 C 12.867968,55.475412 7.7259235,53.446072 4.2374792,49.584781 0.38314177,45.31849 -0.28498655,42.219055 0.141751,30.584776 0.46158682,21.864991 0.53833075,21.60178 3.6451087,18.569225 5.392106,16.863964 7.4715414,14.478309 8.2660765,13.267771 9.0606115,12.057233 12.060938,9.9478584 14.933467,8.5802714 19.664287,6.327969 21.171795,6.0968972 30.9375,6.1271614 41.230686,6.1590603 41.989167,6.2989712 47.692212,9.2177628 62.607677,16.851428 72.76501,27.28667 74.55207,36.812516 c 0.325312,1.734061 0.948899,3.731163 1.385751,4.438003 1.161625,1.87955 3.375674,-0.239868 4.115649,-3.939742 1.449157,-7.245787 13.062024,-20.00296 20.66863,-22.705272 12.50579,-4.44279 14.14022,-4.6599444 26.15449,-3.474954 8.04451,0.793446 12.36959,0.838644 14.67972,0.153406 9.9193,-2.9422893 17.63486,0.642409 19.52918,9.073379 0.90958,4.048285 -0.26191,7.991388 -3.0041,10.111414 -2.29395,1.77349 -3.21424,4.707757 -2.7951,8.911971 0.44335,4.447039 -0.80402,7.714855 -2.32088,6.080192 -0.47447,-0.511315 -1.76853,-3.909894 -2.87568,-7.552398 -2.49198,-8.198557 -3.88323,-10.226825 -8.70072,-12.684524 -4.86397,-2.481409 -5.97853,-1.466043 -5.74262,5.2315 0.36677,10.412563 5.93341,15.576275 18.10361,16.793239 4.98465,0.498441 6.5364,0.306595 8.5258,-1.054066 5.95488,-4.07287 8.08488,-6.426192 17.25545,-19.064617 1.54688,-2.131826 4.36668,-4.672873 6.26622,-5.64677 2.94965,-1.512284 4.18006,-1.632976 8.43027,-0.82694 5.52011,1.046867 8.23068,3.192514 9.76151,7.72705 1.48375,4.395131 3.62215,4.254149 8.15287,-0.537507 6.75049,-7.139267 22.85683,-17.52616 27.18487,-17.531369 0.9189,-0.0011 3.23921,-0.6621526 5.15625,-1.4689923 12.64203,-5.3207719 38.91906,-7.5808871 53.64176,-4.6137843 3.86719,0.779364 9.30392,1.8208479 12.08162,2.3144088 2.7777,0.4935607 7.78209,2.1757147 11.12088,3.7381198 3.33878,1.562405 6.64131,2.840737 7.33895,2.840737 0.69763,0 3.24687,-1.254686 5.66496,-2.788191 7.45163,-4.7256884 19.932,-7.2880111 29.38808,-6.0336175 3.3657,0.4464759 6.51324,1.726744 9.9195,4.034776 5.32429,3.6076655 12.19403,9.8353705 14.4586,13.1073225 2.00311,2.894192 3.56284,2.450128 4.60104,-1.309943 0.50148,-1.816184 2.56805,-5.296652 4.59237,-7.734374 2.02434,-2.4377227 4.69246,-6.2219424 5.92917,-8.4093773 2.9101,-5.1472104 5.22021,-5.1797689 10.67635,-0.150471 4.46458,4.1153057 10.79098,12.9813943 10.79098,15.1229423 0,0.71641 0.63312,2.121479 1.40694,3.122374 1.37475,1.778183 1.43108,1.779345 2.46219,0.05078 4.00107,-6.707405 10.52608,-11.17543 22.65041,-15.5099676 11.0211,-3.9401227 29.81556,-1.9557587 35.86884,3.7871176 1.57142,1.490843 3.32104,2.710622 3.88803,2.710622 0.567,0 6.14169,-1.70877 12.3882,-3.7972666 16.33818,-5.4626035 23.06024,-6.5205834 41.18349,-6.4818381 15.42034,0.032967 17.11712,0.2589482 31.55815,4.2030145 10.95936,2.9931652 27.52081,13.7472242 33.37508,21.6718572 2.04343,2.766081 4.27082,5.029236 4.94978,5.029236 0.67896,0 1.90079,-1.696289 2.71519,-3.769532 1.72231,-4.384572 5.72572,-6.542968 12.13596,-6.542968 4.57207,0 11.2841,4.153398 16.04404,9.928037 3.17326,3.849713 8.02499,7.102544 13.05839,8.754971 2.96176,0.972323 4.65762,0.892152 10.55936,-0.499186 7.81966,-1.843487 8.77393,-2.620595 11.16073,-9.088667 1.38548,-3.754593 1.47047,-4.95622 0.51389,-7.265625 C 679.91618,23.601272 678.76405,22.5 677.71134,22.5 c -1.71063,0 -3.18302,2.515719 -6.01645,10.279686 -1.37992,3.781143 -3.25739,4.862766 -3.25739,1.876597 0,-1.71111 -0.35934,-1.949053 -2.10938,-1.396729 -5.07531,1.601819 -6.91441,1.544119 -9.17583,-0.287882 -1.97231,-1.597794 -2.27953,-2.569667 -2.10941,-6.67288 0.2395,-5.776159 1.7176,-9.060329 5.25824,-11.683228 2.70198,-2.001619 2.46255,-1.983286 18.91763,-1.448572 2.0625,0.06702 6.07031,-0.338414 8.90625,-0.900966 2.83594,-0.562553 9.00653,-1.286993 13.71244,-1.609866 7.94557,-0.545147 8.91568,-0.412698 13.59375,1.855952 12.08875,5.862502 17.38076,10.444765 21.07079,18.244849 2.90275,6.135925 4.91554,6.185616 6.96183,0.171868 3.30028,-9.699059 11.43062,-19.215754 20.77374,-24.3159859 5.47147,-2.986772 6.66566,-3.2597588 15.80405,-3.6127365 8.08998,-0.3124828 11.08196,-0.02546 16.47405,1.5803737 8.78903,2.6174889 14.96679,7.4486277 17.85356,13.9618757 5.51999,12.454461 0.3405,25.171056 -12.80671,31.442778 -4.58452,2.186993 -5.62402,2.353729 -9.375,1.503754 -4.97131,-1.126505 -10.58506,-4.602524 -12.7369,-7.886655 -2.40816,-3.67532 -2.32414,-14.609251 0.1377,-17.918315 2.63567,-3.542721 6.27198,-4.628598 10.87835,-3.248494 4.68539,1.403775 6.24917,4.359709 4.51778,8.53968 -1.94717,4.700872 -3.31524,5.635992 -6.58021,4.497815 -1.55034,-0.540451 -3.24661,-1.782014 -3.76949,-2.759029 -1.26127,-2.35669 -2.64619,-2.246646 -3.58258,0.28467 -1.1838,3.200115 0.80193,8.012939 4.456,10.800038 2.85932,2.18091 4.16788,2.51803 9.58152,2.468459 4.84559,-0.04437 6.91154,-0.514273 9.09423,-2.068485 1.55336,-1.106089 3.18177,-2.011072 3.61868,-2.011072 2.03913,0 5.01507,-8.109556 5.01253,-13.659376 -0.003,-5.180287 -0.3063,-6.045425 -3.389,-9.64686 -3.85001,-4.497881 -10.1169,-7.984708 -17.95613,-9.9905961 -6.51471,-1.6669743 -20.54851,-0.6932738 -25.27223,1.7534521 -8.92873,4.624763 -15.90544,12.059963 -17.1967,18.326831 -0.38223,1.85504 -1.36852,5.819164 -2.19176,8.809165 -1.62148,5.889244 -1.99741,14.299831 -0.67566,15.116714 0.45162,0.279117 2.66646,-0.742996 4.92187,-2.271362 3.54229,-2.400409 4.97095,-2.781172 10.49051,-2.795908 7.14246,-0.01907 10.01649,1.051074 10.01649,3.729643 0,1.626234 -0.68538,1.797753 -6.89479,1.725455 -4.07127,-0.0474 -8.00644,0.447355 -9.60937,1.208158 -3.74898,1.779392 -7.80106,10.141011 -7.84075,16.179665 -0.0166,2.518303 -0.42134,6.104241 -0.89953,7.96875 -0.47819,1.864511 -1.5652,6.537419 -2.41557,10.384242 -1.91594,8.66708 -5.64748,16.311287 -11.75807,24.086867 -2.58304,3.28685 -5.17399,7.02421 -5.75766,8.30524 -0.95968,2.10628 -8.74384,7.95742 -10.58627,7.95742 -0.41477,0 -3.33096,1.59855 -6.48043,3.55233 -7.41446,4.59957 -20.77203,9.5651 -28.60749,10.63449 -13.62102,1.85904 -16.29987,1.97379 -22.82726,0.97788 -3.73536,-0.56992 -9.19002,-1.26247 -12.12148,-1.53902 l -5.32992,-0.50279 -2.92575,5.7575 c -1.60917,3.16662 -3.98616,7.14777 -5.28223,8.84699 -1.99194,2.61157 -2.18736,3.40545 -1.26332,5.13202 1.70691,3.18941 0.34054,9.57794 -2.6396,12.34162 -3.30729,3.06708 -6.2298,3.70961 -11.19085,2.4604 -4.0332,-1.01557 -4.03893,-1.0133 -8.94335,3.53368 -2.69916,2.50245 -5.05823,4.90462 -5.2424,5.33817 -0.62377,1.46846 3.77704,5.18002 8.63021,7.27857 7.04384,3.04579 15.37724,2.95162 22.64213,-0.25589 11.37368,-5.02158 14.07735,-4.06909 7.26563,2.55965 -8.71872,8.4845 -22.70879,9.61542 -33.3141,2.69302 -3.84852,-2.51205 -5.77733,-2.23239 -4.8458,0.70257 0.66653,2.10008 -2.13302,15.80131 -3.22867,15.80131 -0.39258,0 -3.28671,2.32837 -6.4314,5.17415 -6.70199,6.06495 -11.69887,8.16978 -19.44566,8.19111 -6.24809,0.0172 -12.88461,-3.0074 -16.39733,-7.47311 -2.30204,-2.92656 -2.51154,-9.44243 -0.44371,-13.80005 1.76336,-3.71599 7.80087,-7.2796 12.33322,-7.2796 7.62671,0 11.23997,7.60294 5.61031,11.80508 l -2.64751,1.97617 -4.66538,-2.60424 c -5.23978,-2.92488 -6.44585,-2.70387 -6.44585,1.1812 0,3.12847 4.49209,8.13423 8.11566,9.04368 4.9192,1.23465 12.58863,-0.48791 17.18067,-3.85877 5.68811,-4.17546 10.63161,-13.46933 10.73006,-20.17269 0.0905,-6.16142 -1.15967,-7.30149 -5.66317,-5.16444 -7.04307,3.34215 -25.9602,6.10651 -41.7883,6.10651 -7.88082,0 -11.10868,-0.41019 -14.85839,-1.88819 -2.63471,-1.03851 -5.23252,-1.61494 -5.77291,-1.28096 -0.61125,0.37777 -0.81564,3.30543 -0.54089,7.74756 0.3436,5.55531 1.08189,8.389 3.3259,12.76534 3.98367,7.7691 4.44078,10.11173 2.53939,13.01362 -1.55917,2.3796 -1.53895,2.43226 1.65776,4.31837 2.10492,1.24193 3.76998,3.2683 4.76318,5.79674 1.3978,3.55845 1.40225,4.31642 0.0525,8.95942 -1.58922,5.46673 -5.62238,10.78179 -9.83406,12.95974 -1.52195,0.78703 -5.25158,1.35836 -8.86739,1.35836 -5.58472,0 -6.16713,0.17242 -5.54159,1.64062 1.74902,4.10501 2.4181,13.8898 1.32762,19.41555 -2.1374,10.83087 -2.14006,12.11904 -0.0289,14.02959 1.08668,0.98344 1.95289,2.92331 1.95289,4.37351 0,1.43339 0.41143,3.68832 0.91429,5.01095 1.2245,3.22066 -0.15501,6.66462 -4.43351,11.06835 -4.01852,4.13613 -7.5408,4.98314 -13.33866,3.20757 l -4.20162,-1.28673 -5.4188,4.78592 c -2.98034,2.63226 -8.00005,6.05154 -11.15489,7.59842 l -5.7361,2.8125 -4.00191,10.92365 c -2.20106,6.008 -4.28728,12.22289 -4.63606,13.81085 -0.36494,1.66159 -1.58892,3.392 -2.88332,4.07636 -1.23706,0.65402 -5.11402,3.15335 -8.61546,5.55407 -10.78949,7.39763 -21.04054,8.21857 -37.97834,3.04143 -5.02821,-1.5369 3.63676,8.55903 9.60938,11.19629 1.28906,0.56921 3.82139,2.19302 5.6274,3.60849 2.45046,1.92056 5.05688,2.82507 10.27208,3.56472 6.19819,0.87906 8.41363,1.89708 8.46116,3.88797 0.0345,1.44643 -8.53994,3.91442 -14.98564,4.31333 -5.63012,0.34842 -8.05875,0.0423 -12.1875,-1.53616 -7.26505,-2.77753 -7.5,-2.69563 -7.5,2.61403 0,4.10952 -2.2741,13.97556 -7.37042,31.97622 -1.76537,6.23542 -3.51488,7.85493 -5.67446,5.25279 z M 380.0906,357.13367 c 2.33589,-1.57647 5.83751,-4.81329 7.78137,-7.19293 4.89736,-5.99528 10.86524,-9.62824 15.81634,-9.62824 l 3.94621,0 -0.3483,-7.25513 c -0.19169,-3.9934 -0.7975,-7.40488 -1.34749,-7.58821 -0.54956,-0.18319 -2.46761,0.78693 -4.26233,2.15582 -1.79471,1.3689 -5.68344,3.55065 -8.64163,4.84836 -2.95819,1.2977 -6.36747,3.60408 -7.57618,5.12529 -3.00541,3.78242 -9.07815,6.77831 -12.16791,6.00283 -1.3364,-0.33542 -4.03098,-2.0564 -5.98796,-3.8244 -3.05849,-2.76317 -4.22009,-3.21456 -8.27235,-3.21456 -3.46655,0 -4.86734,0.39903 -5.29278,1.5077 -0.98035,2.55475 2.42856,11.52383 5.41405,14.24473 2.64238,2.40818 13.18345,7.59184 15.56699,7.65518 0.61868,0.0164 3.03606,-1.25996 5.37197,-2.83644 z m 66.1594,1.07708 c 1.80469,-0.4627 4.47786,-1.11034 5.94037,-1.4392 4.99541,-1.12327 12.87262,-9.69605 15.66999,-17.05368 l 0.94379,-2.48235 -6.31977,0.64749 c -3.61024,0.36988 -7.58823,1.43143 -9.27836,2.47598 -3.46961,2.14434 -6.7429,2.33654 -9.32554,0.54758 -1.01708,-0.70452 -5.01329,-2.64469 -8.88048,-4.31151 -3.86719,-1.66681 -10.05688,-4.4654 -13.75488,-6.21907 -3.698,-1.75367 -7.17846,-3.18849 -7.73437,-3.18849 -0.63127,0 -1.01075,2.5949 -1.01075,6.91143 l 0,6.91143 3.62895,0.58029 c 2.90037,0.46379 5.18226,2.08836 11.36583,8.09178 8.9539,8.69305 12.25614,10.19464 18.75522,8.52832 z m -68.6914,-21.27716 c -0.31153,-0.31152 -1.12013,-0.34482 -1.79688,-0.074 -0.74787,0.29927 -0.52573,0.52142 0.56641,0.5664 0.98827,0.0407 1.54199,-0.18087 1.23047,-0.49239 z m 87.04219,-5.1739 c 2.2996,-0.57904 4.41484,-1.43104 4.70055,-1.89333 0.80591,-1.30398 -1.47232,-7.50228 -4.00293,-10.89064 -2.57226,-3.44413 -8.23859,-6.67346 -12.19114,-6.94792 -6.73206,-0.46747 -8.7858,0.17043 -12.97196,4.0291 -3.76034,3.46616 -4.19781,4.30303 -4.19781,8.03038 0,7.68799 3.67077,10.17015 8.05086,5.44397 3.19152,-3.44371 7.68735,-2.86476 11.90754,1.53338 1.95182,2.03413 3.04146,2.12114 8.70489,0.69506 z m -101.08517,-1.9971 c 0.64454,-0.51132 1.17188,-1.37215 1.17188,-1.91293 0,-2.37914 3.21208,-4.41216 6.97102,-4.41216 3.43677,0 3.98625,0.3135 4.92951,2.8125 0.79262,2.0999 1.66007,2.8125 3.42361,2.8125 5.1614,0 3.42659,-7.55273 -3.08633,-13.43677 -3.41842,-3.08834 -4.3347,-3.43823 -9.0039,-3.43823 -4.96051,0 -5.4044,0.2062 -9.70795,4.50976 -3.65814,3.65814 -4.63418,5.33946 -5.16864,8.90349 -0.36238,2.41656 -0.42894,4.76578 -0.14791,5.22051 0.63941,1.0346 9.03522,0.19755 10.61871,-1.05867 z m 67.03019,-7.09263 c 0.9174,-6.83974 3.93344,-12.05368 8.24486,-14.25321 6.49079,-3.31135 12.52227,-3.44404 20.14855,-0.44326 6.32964,2.49059 12.62328,7.19102 12.62328,9.42774 0,0.60274 0.84375,2.16857 1.875,3.47959 1.03125,1.31101 1.875,3.05541 1.875,3.87643 0,2.16825 2.04469,1.85316 8.85497,-1.36454 7.57213,-3.57766 10.73403,-7.85387 8.96506,-12.12454 -1.76731,-4.26665 -1.53505,-9.08791 0.57653,-11.96774 2.36948,-3.23155 7.41538,-5.85956 11.25428,-5.86148 4.21624,-0.002 5.67183,-2.09907 4.22821,-6.09134 -0.99421,-2.74943 -0.89173,-3.61327 0.799,-6.73516 1.52683,-2.81926 1.90669,-5.07719 1.78533,-10.61245 -0.0848,-3.86719 -0.50546,-7.98047 -0.93481,-9.14062 -1.04924,-2.83513 -3.65357,-2.75819 -3.65357,0.10794 0,1.21953 -0.87437,3.3289 -1.94304,4.6875 -2.80034,3.56004 -9.06814,3.50777 -12.94201,-0.10795 -1.51921,-1.41796 -3.7486,-3.44061 -4.9542,-4.49476 -1.2056,-1.05417 -3.27951,-3.79635 -4.60868,-6.09375 -2.81982,-4.87392 -8.58138,-9.18215 -13.30465,-9.94864 -4.95316,-0.80379 -12.89781,3.12238 -16.56665,8.18706 -3.25111,4.48803 -5.69729,11.73859 -5.64738,16.739 0.0501,5.01292 2.30809,13.52331 4.79349,18.06623 2.73975,5.00782 10.23154,9.18549 16.47232,9.18549 10.18477,0 18.51105,-9.28097 13.92708,-15.52394 -1.29206,-1.75968 -1.36812,-1.73624 -2.3019,0.70928 -0.53113,1.39101 -2.01092,3.21396 -3.28842,4.05101 -2.66434,1.74574 -5.11387,0.91033 -7.55664,-2.5772 -4.87786,-6.96414 2.88247,-13.34657 12.25524,-10.0792 5.62314,1.96023 9.04269,15.27828 5.29623,20.62711 -4.92727,7.03465 -10.40387,9.66422 -18.36665,8.81867 -11.5129,-1.22255 -18.10008,-5.4684 -22.93651,-14.78405 -3.30962,-6.37479 -3.48321,-7.15591 -3.47041,-15.61668 0.017,-11.18376 3.57508,-22.49481 8.68315,-27.60287 8.22457,-8.22457 18.72253,-12.70963 29.74882,-12.70963 9.53699,0 15.38086,2.40755 22.2556,9.16883 4.72979,4.65173 5.55564,5.13153 6.75528,3.92476 1.06372,-1.07003 1.17306,-2.20623 0.49319,-5.12484 -0.48044,-2.0625 -0.88359,-7.41963 -0.89589,-11.90473 -0.0262,-9.5408 2.50768,-18.72395 8.43274,-30.56184 4.29951,-8.59019 4.53394,-10.23357 1.62302,-11.37759 -3.63767,-1.42964 -12.02889,-8.23166 -16.23787,-13.16261 -5.37706,-6.29938 -6.91938,-8.59117 -11.37296,-16.89948 -4.20207,-7.83911 -6.20004,-14.08587 -7.70359,-24.08583 -1.7037,-11.33112 -1.54403,-12.931 3.30372,-33.10167 0.8055,-3.351562 3.00552,-9.031749 4.88893,-12.622637 4.14217,-7.897404 14.87266,-19.195084 20.55927,-21.645966 2.1914,-0.94448 3.98437,-1.978586 3.98437,-2.298012 0,-0.319427 -1.26562,-1.516492 -2.8125,-2.660147 -2.43459,-1.799971 -2.8123,-2.673952 -2.81105,-6.504429 0.003,-9.879553 4.94219,-14.182077 17.11249,-14.907443 8.70221,-0.518663 11.04082,-1.07429 22.10707,-5.252387 5.82113,-2.197787 8.13723,-3.574079 9.07881,-5.394889 1.89336,-3.661354 4.03275,-5.194016 5.37566,-3.851119 2.98532,2.985329 -7.25522,20.133672 -14.97066,25.069182 -2.77445,1.774788 -4.78844,3.641102 -4.47555,4.147366 0.31289,0.506264 3.18071,0.923668 6.37294,0.927563 13.25551,0.01617 22.82377,3.10094 31.40222,10.123933 5.40498,4.424954 7.85853,8.993645 11.42552,21.275235 4.39589,15.13556 5.04777,16.40625 8.41658,16.40625 2.21572,0 3.3114,-0.75107 5.15105,-3.530962 1.28518,-1.942032 2.60264,-4.860741 2.92769,-6.486013 0.78484,-3.924229 -2.42453,-13.46166 -6.74468,-20.043407 -5.5418,-8.442949 -6.93059,-12.471029 -6.93059,-20.101662 0,-6.03561 0.29837,-7.236193 2.42708,-9.766026 1.33491,-1.586437 3.33882,-2.890191 4.45313,-2.897232 3.68981,-0.02331 6.24516,-1.122572 6.21756,-2.674665 -0.0552,-3.10403 -24.57764,-20.592218 -33.05107,-23.570388 -16.45437,-5.7832469 -41.40272,-5.9800008 -64.29169,-0.507033 -11.91832,2.849783 -17.70283,6.314142 -14.17911,8.491918 1.82437,1.127527 4.42098,7.528722 5.05142,12.452834 0.44758,3.495869 0.16257,6.645468 -0.96501,10.664103 -5.20703,18.55772 -32.74553,23.036658 -41.02655,6.672668 -1.03796,-2.051101 -1.98698,-2.837544 -2.96928,-2.460603 -3.53691,1.357242 -15.4153,22.419165 -19.27554,34.178034 -2.15377,6.560706 -1.8276,8.220309 2.71718,13.82554 3.27089,4.034084 3.33761,4.063964 4.80752,2.152275 1.95678,-2.544853 9.52434,-7.610586 11.40173,-7.632321 0.81049,-0.0094 3.42979,0.649474 5.82066,1.464127 8.03937,2.739288 13.03176,14.121303 11.17057,25.467493 -1.37323,8.37152 -8.05682,25.62167 -12.96958,33.47411 -1.30619,2.08778 -4.86994,7.72229 -7.91946,12.52112 -3.04951,4.79884 -5.54456,9.10389 -5.54456,9.56677 0,0.46287 0.94922,1.8458 2.10937,3.07314 1.16016,1.22736 3.9411,4.23658 6.17987,6.68717 l 4.0705,4.45562 5.39377,-0.62602 c 6.95217,-0.80688 12.21814,0.63908 15.84779,4.35157 2.9443,3.01149 3.35045,4.19226 4.41898,12.84675 0.42824,3.46839 1.22629,5.49464 2.58472,6.5625 4.23453,3.32874 10.09107,10.16431 11.76554,13.73234 4.94242,10.53155 3.28776,10.43139 -8.30804,-0.50287 -4.89844,-4.61897 -9.40948,-8.39932 -10.02454,-8.40076 -0.61505,-0.002 -2.66052,0.90732 -4.54548,2.01947 -8.63015,5.09192 -19.41982,0.42698 -22.42601,-9.69596 -1.96267,-6.60904 -1.83553,-9.7563 0.45908,-11.3635 2.4742,-1.73301 1.4317,-4.6767 -3.11584,-8.79812 -1.81559,-1.64546 -4.05553,-4.26895 -4.97766,-5.82998 -2.40297,-4.06791 -4.20162,-4.42155 -6.68776,-1.3149 -1.16048,1.45014 -2.11207,3.03131 -2.11463,3.5137 -0.003,0.48239 -0.81901,1.74801 -1.81434,2.8125 -1.69936,1.81745 -3.67149,4.64009 -16.46491,23.56562 -2.81362,4.16223 -5.97005,8.34091 -7.01429,9.28593 -2.44464,2.21235 -2.39219,3.49476 0.27591,6.74631 3.10461,3.78353 8.75933,14.26915 10.31782,19.13249 4.25264,13.27053 4.46524,33.68847 0.49705,47.73632 -2.31247,8.18639 -8.0593,19.63292 -11.21228,22.33259 -3.39314,2.90529 -2.18814,4.37388 6.426,7.83168 4.51172,1.81104 8.46261,3.15807 8.77975,2.99338 0.31714,-0.16469 0.79546,-1.93102 1.06294,-3.92519 z m -83.08692,-1.55034 c 1.84188,-5.84309 5.15938,-9.43004 12.0649,-13.0448 7.89717,-4.13386 17.08676,-2.78641 22.63104,3.31832 2.25591,2.48395 6.90767,10.99579 6.90767,12.63972 0,1.48039 2.46098,2.3008 4.45208,1.48419 3.92869,-1.61128 10.54792,-6.10538 10.54792,-7.16147 0,-0.63455 -1.0277,-2.11921 -2.28377,-3.29923 -2.70704,-2.54313 -6.49296,-11.25094 -8.58408,-19.74385 -3.85374,-15.65164 -4.28375,-18.43456 -3.76633,-24.375 0.89908,-10.32217 2.24903,-20.02148 3.19679,-22.96875 1.96096,-6.09801 4.31484,-11.38012 6.26669,-14.0625 1.12559,-1.54688 3.21663,-4.82526 4.64673,-7.2853 l 2.60019,-4.47281 -3.61623,-5.1493 c -1.98894,-2.83211 -5.0928,-7.45631 -6.89749,-10.276 -1.80469,-2.81968 -5.8125,-8.88799 -8.90625,-13.48512 -3.09375,-4.59712 -6.34366,-9.6672 -7.22202,-11.26681 -0.91312,-1.66292 -2.35545,-2.90841 -3.36807,-2.90841 -2.46295,0 -11.72614,11.06915 -10.90896,13.03578 3.61352,8.69635 1.42612,20.10608 -4.43573,23.13737 -2.9248,1.51247 -9.5479,1.46669 -15.89512,-0.10986 -2.12768,-0.52849 -3.59596,0.43193 -11.01563,7.20541 -10.74752,9.81151 -11.28425,12.38669 -1.78282,8.55387 4.24335,-1.71173 12.94797,-2.14097 18.72494,-0.92334 3.28805,0.69303 15.68768,10.01863 18.1854,13.677 0.56984,0.83464 2.45209,5.10346 4.18278,9.48627 2.81095,7.11847 3.14202,8.91906 3.10279,16.875 -0.0402,8.16474 -0.30066,9.4136 -3.12761,15 -4.64354,9.17622 -6.4495,11.28898 -11.66759,13.64969 -13.24223,5.99092 -23.48546,3.28259 -28.58055,-7.55674 -2.08287,-4.43112 -2.5188,-8.78898 -1.15001,-11.4963 0.45267,-0.89535 1.5051,-3.21951 2.33873,-5.16483 0.90844,-2.11986 2.48117,-3.90399 3.92549,-4.45312 2.82199,-1.07292 8.85831,-1.18856 10.37288,-0.19872 2.10969,1.37879 5.03293,7.32525 5.03634,10.24499 0.007,5.84484 -7.71627,7.97311 -12.95052,3.56878 -4.52202,-3.80503 -7.42138,-2.8218 -6.28762,2.13225 0.67924,2.96801 7.227,8.28262 11.88442,9.64623 1.72616,0.50538 5.45879,0.64656 8.29473,0.31372 4.57298,-0.53669 5.61553,-1.09319 9.21645,-4.91963 6.00247,-6.3784 7.05423,-9.37975 7.11284,-20.29757 0.0481,-8.96046 -0.0921,-9.63475 -3.17067,-15.2493 -9.27492,-16.91519 -26.19568,-16.425 -33.26294,0.96362 -2.73329,6.7251 -6.88813,11.78632 -10.50059,12.79127 -3.92658,1.09234 -11.42812,-0.37738 -13.9319,-2.72956 -1.09465,-1.02838 -2.33481,-1.86978 -2.75587,-1.86978 -1.2627,0 -0.0341,18.96008 1.42586,22.00534 1.06218,2.21547 2.15408,2.92624 5.32751,3.468 6.0677,1.03583 8.86692,2.75329 11.19787,6.87041 2.62397,4.6347 2.7259,9.43022 0.27894,13.125 -2.76933,4.18154 -2.34608,5.57942 2.81107,9.28447 6.96474,5.00367 11.33828,7.12178 14.70526,7.12178 2.82809,0 3.11204,-0.31462 4.63006,-5.13038 z m 165.93161,-8.46648 c 2.98646,-1.93011 3.34848,-4.84342 0.94856,-7.63349 l -2.06787,-2.40403 -3.51262,5.29037 c -1.93193,2.90971 -3.24068,5.73039 -2.90832,6.26816 0.7032,1.1378 4.6618,0.33927 7.54025,-1.52101 z m -99.14664,-8.20002 c 7.51658,-15.63113 8.10754,-18.05833 8.04604,-33.04687 -0.0514,-12.5105 -0.21254,-13.60058 -3.44331,-23.28276 -5.75276,-17.24026 -10.74712,-21.83437 -13.92708,-12.81099 -1.89553,5.3787 -3.4254,9.11925 -5.16767,12.63496 -0.76077,1.53516 -2.22671,6.09475 -3.25761,10.13243 -1.68872,6.61405 -1.77722,8.427 -0.89345,18.30254 1.02552,11.4593 3.92309,23.02047 7.56402,30.18007 2.36462,4.64984 4.53007,7.5 5.69824,7.5 0.41797,0 2.83934,-4.32422 5.38082,-9.60938 z m -9.3251,-24.40481 c -5.24474,-4.02678 -4.65345,-13.32381 0.99622,-15.66398 3.35114,-1.38809 7.10749,-0.36395 9.41235,2.56621 2.84635,3.61855 2.39602,7.38861 -1.32733,11.11196 -3.31853,3.31853 -6.45276,4.00389 -9.08124,1.98581 z m -94.62038,29.56106 c -0.0307,-1.52737 -2.54202,-7.85301 -3.49681,-8.8078 -3.22804,-3.22804 -3.58462,4.47386 -0.3618,7.81459 1.57977,1.63756 3.88345,2.23053 3.85861,0.99321 z m 191.26412,-1.04104 c 0,-0.44367 1.08123,-2.39996 2.40272,-4.34728 2.76786,-4.07869 2.00559,-5.84546 -1.7782,-4.12144 -3.75815,1.71232 -5.63211,5.03828 -4.16362,7.38971 1.17639,1.88371 3.5391,2.60406 3.5391,1.07901 z m -181.32248,-3.41208 c 0.32354,-1.28906 0.32546,-3.39077 0.005,-4.67045 -1.00114,-3.98887 -9.03079,-6.75593 -8.97649,-3.09334 0.0314,2.11953 5.5614,10.10754 6.9973,10.10754 0.76267,0 1.65138,-1.05469 1.97492,-2.34375 z m -5.49584,-66.09375 c 1.31102,-1.03125 3.2971,-1.875 4.4135,-1.875 2.0258,0 4.27982,-1.57999 4.27982,-3 0,-0.4125 -0.64605,-0.75 -1.43567,-0.75 -4.9913,0 -0.48583,-7.55116 11.60978,-19.45796 3.811,-3.75151 4.84058,-5.33142 4.28078,-6.56892 -0.4054,-0.89615 -0.89802,-3.73875 -1.09471,-6.31687 -0.41983,-5.50303 2.65994,-12.37751 6.39883,-14.28306 2.77059,-1.41203 10.141,-1.53374 13.58503,-0.22431 3.59668,1.36744 5.15393,0.55464 8.59613,-4.48673 1.66866,-2.44386 3.95677,-5.59137 5.0847,-6.99444 1.76404,-2.19435 1.88758,-2.84976 0.88357,-4.6875 -0.64195,-1.17505 -2.81789,-5.08959 -4.83541,-8.69896 -18.53224,-33.15455 -23.52331,-50.28671 -18.29518,-62.799394 1.58723,-3.79875 4.36504,-5.169356 10.47678,-5.169356 4.54422,0 11.05017,2.786869 11.94407,5.116313 0.30522,0.795403 1.34346,1.446187 2.30718,1.446187 1.25869,0 2.58725,-1.834612 4.71692,-6.513563 1.63058,-3.582453 2.9647,-6.848248 2.9647,-7.257316 0,-0.409069 -1.44249,-3.700624 -3.20554,-7.314567 -1.76303,-3.613942 -4.4668,-9.392071 -6.00836,-12.840286 -2.97587,-6.656536 -8.00936,-14.57201 -10.42083,-16.387377 -1.88509,-1.419106 -3.49248,-0.108848 -4.28324,3.491464 -1.24033,5.647202 -11.26133,10.059763 -18.9386,8.339255 -5.88162,-1.3181 -8.78536,-2.996827 -12.7233,-7.355659 -6.71101,-7.428288 -7.81101,-18.570818 -2.85929,-28.963487 3.53432,-7.417821 3.45668,-7.496997 -11.87334,-12.108876 -16.34451,-4.9170756 -38.50815,-6.0588029 -50.625,-2.607872 -2.83594,0.807687 -8.144,2.036938 -11.7957,2.731669 -5.88468,1.119553 -8.96994,2.346615 -14.34235,5.704189 -0.83501,0.521854 -4.68226,2.792999 -8.54945,5.04699 -8.19134,4.774326 -12.1875,8.224598 -12.1875,10.522659 0,1.755628 1.05204,2.216655 7.2619,3.182318 5.34543,0.831238 7.7381,3.901387 7.7381,9.929106 0,5.527289 -3.29701,13.147866 -7.90335,18.267508 C 214.99406,71.641454 210,82.004006 210,86.739903 c 0,4.709668 2.8417,8.885097 6.04701,8.885097 2.70864,0 3.26186,-0.726234 7.14154,-9.375 4.21057,-9.386375 14.45892,-22.021745 21.97666,-27.09541 5.2438,-3.538996 14.2674,-7.59209 16.90266,-7.59209 2.78698,0 5.11963,-0.909291 5.11963,-1.995683 0,-0.471668 -2.35357,-3.211156 -5.23017,-6.087752 -3.23585,-3.235849 -6.22721,-7.428463 -7.84491,-10.995245 -4.8764,-10.751728 -5.29289,-13.73382 -1.9181,-13.73382 1.71475,0 3.84345,2.273407 7.78036,8.309273 1.13112,1.734163 4.4296,4.611953 7.32997,6.395089 6.46283,3.973335 13.30247,4.430774 19.43909,1.300103 9.97259,-5.087638 21.44094,0.06236 22.40154,10.059689 0.44191,4.598962 -1.54979,10.498346 -3.54436,10.498346 -2.38715,0 -0.46606,2.896501 3.4389,5.184966 2.39378,1.402846 7.61034,5.663317 11.59235,9.467711 5.56137,5.313305 7.82568,8.274779 9.76594,12.772827 1.38925,3.22066 3.73392,8.197683 5.21039,11.060052 3.99732,7.749464 5.93683,27.219804 3.70603,37.204114 -3.78577,16.94387 -6.86171,24.70944 -12.77072,32.24125 -5.13607,6.54659 -20.73544,20.69855 -25.09675,22.76813 -1.78332,0.84624 -3.50869,1.96947 -3.83414,2.49607 -0.32545,0.52658 0.93691,3.17695 2.80524,5.88968 1.86834,2.71274 4.50083,8.07139 5.84998,11.90811 2.14437,6.09808 2.4756,8.62734 2.63247,20.10084 0.0987,7.21875 0.24581,13.44141 0.32691,13.82812 0.27574,1.31464 3.12504,0.70938 5.51666,-1.17187 z m -62.52705,-19.80714 c 3.43904,-1.03036 5.59537,-3.75012 5.59537,-7.05735 0,-1.15392 -0.54575,-1.30479 -2.57813,-0.71273 -3.59996,1.04873 -8.53415,0.7336 -10.20327,-0.65165 -2.38623,-1.98039 -4.27643,-6.54005 -3.68614,-8.89195 0.34177,-1.36173 2.02861,-2.98058 4.32815,-4.15372 2.07247,-1.0573 3.51738,-2.32805 3.21092,-2.8239 -0.30645,-0.49586 -2.79635,-0.90156 -5.53309,-0.90156 -2.94799,0 -6.93389,-0.8137 -9.78023,-1.99658 -5.80575,-2.41277 -7.14733,-1.6988 -8.04404,4.28088 -0.48269,3.21879 -0.10214,5.36022 1.77229,9.97322 3.52138,8.66618 6.62592,11.3809 14.88204,13.01337 5.57453,1.10226 6.1106,1.09809 10.03613,-0.078 z m 223.157,-7.41334 c 2.74077,-1.46682 2.20816,-3.07381 -2.0268,-6.1153 -2.11209,-1.51689 -5.22637,-3.91813 -6.92063,-5.3361 -4.0243,-3.36803 -4.84104,-3.25505 -5.59693,0.77419 -0.65264,3.47885 -0.31944,4.22237 4.06437,9.06956 2.49971,2.76395 7.02292,3.45781 10.47999,1.60765 z m -120.9811,-1.85122 c 5.58759,-2.85058 9.07292,-11.2408 4.66947,-11.2408 -1.03125,0 -1.875,0.42234 -1.875,0.93854 0,0.5162 -1.62702,2.5201 -3.6156,4.45313 -3.72411,3.62004 -5.80391,7.73333 -3.91023,7.73333 0.57091,0 2.70003,-0.84789 4.73136,-1.8842 z m 61.61131,-3.81307 c 4.10953,-6.28543 8.31933,-12.23389 15.90297,-22.47095 4.22871,-5.70827 7.95391,-11.2147 8.27822,-12.23652 0.35135,-1.10702 -0.24731,-3.45289 -1.48135,-5.80467 -1.13906,-2.17077 -2.40082,-5.00153 -2.80391,-6.29059 -1.24535,-3.98255 -6.39764,-17.78504 -7.00691,-18.77086 -0.32771,-0.53025 -2.84316,0.68967 -5.82519,2.82505 -2.88662,2.06707 -5.78411,3.75831 -6.43886,3.75831 -2.86608,0 -2.25082,3.90157 1.97643,12.53323 l 4.33524,8.85214 -2.009,3.93796 c -1.10495,2.16588 -2.59066,6.52995 -3.30159,9.69794 -0.71092,3.16799 -2.09596,8.7131 -3.07786,12.32248 -3.8751,14.24449 -3.29411,18.90524 1.45181,11.64648 z m -9.50859,1.58332 c 0.78129,-2.03598 -3.35068,-23.79338 -5.82779,-30.68698 -2.72471,-7.58264 -2.77466,-9.61411 -0.32112,-13.0598 1.82689,-2.56562 5.51933,-12.30224 5.56761,-14.68126 0.0127,-0.62466 -1.76992,-1.58473 -3.96133,-2.13349 -2.1914,-0.54876 -5.41722,-1.64233 -7.16848,-2.43015 -1.75125,-0.78783 -3.49119,-1.09339 -3.86654,-0.67901 -0.37533,0.41436 -1.61491,3.70651 -2.75461,7.31589 -1.1397,3.60937 -3.18804,8.62123 -4.55189,11.13746 -4.50396,8.30961 -3.69537,10.66639 10.81386,31.51879 1.25571,1.80469 3.97556,5.91797 6.04412,9.14062 3.80438,5.92697 5.11921,6.92145 6.02617,4.55793 z M 354.7293,194.21227 c 0.97772,-2.0847 -0.26783,-2.96227 -4.2044,-2.96227 -4.962,0 -8.3374,3.43972 -8.3374,8.49627 0,1.97985 0.51554,3.71903 1.17187,3.95335 1.18497,0.42303 10.28209,-7.16783 11.36993,-9.48735 z m 126.77857,6.95474 c 1.33004,-3.46604 -5.19915,-8.96974 -10.6485,-8.976 -3.65811,-0.004 -3.8886,1.18722 -0.67095,3.46835 1.30675,0.92641 3.89601,2.84455 5.75391,4.26252 3.82621,2.9202 4.83605,3.14613 5.56554,1.24513 z m 97.03182,-12.32827 c 6.33784,-1.84181 12.28261,-3.75509 13.21058,-4.25173 6.39514,-3.42258 -7.46273,-16.07618 -21.08701,-19.2545 -7.35088,-1.71484 -11.45476,-1.05364 -20.2778,3.26712 -5.69504,2.78893 -7.94762,4.60116 -12.40769,9.98209 -2.99718,3.616 -5.4558,7.32186 -5.46359,8.23525 -0.0226,2.64189 3.27544,3.41475 18.26707,4.28081 7.73437,0.4468 14.55133,0.87478 15.14879,0.95104 0.59746,0.0763 6.2718,-1.36826 12.60965,-3.21008 z m -308.25044,0.0545 c 9.45705,-0.70255 11.89825,-1.63694 11.89825,-4.55414 0,-4.16026 -12.26737,-12.94676 -20.55823,-14.72484 -5.82351,-1.24891 -16.98814,-0.4357 -20.75396,1.51169 -3.04466,1.57444 -11.18781,9.37281 -11.18781,10.71411 0,2.18467 3.74476,4.45791 8.97802,5.45006 11.93074,2.2619 16.02337,2.76338 20.08448,2.461 2.32031,-0.17277 7.51298,-0.55883 11.53925,-0.85792 z m 31.6603,-9.87962 c 7.28613,-4.78352 14.92545,-12.64199 14.92545,-15.35366 0,-1.03548 -0.90416,-1.47347 -3.04688,-1.47594 -4.47366,-0.005 -8.74831,-2.99837 -10.09067,-7.06578 -0.93897,-2.84508 -0.88238,-4.49211 0.31657,-9.21318 2.35085,-9.25695 2.60667,-12.22989 1.49746,-17.40195 -0.57591,-2.68536 -0.79432,-5.13523 -0.48538,-5.44419 1.01569,-1.01567 5.37921,1.97855 6.75196,4.63316 0.74008,1.43116 1.93374,5.97106 2.65258,10.08867 1.32524,7.59113 3.70623,12.28235 7.17643,14.13954 4.45425,2.38384 4.92124,-3.03052 0.85293,-9.88901 -3.54196,-5.97114 -3.63276,-10.92708 -0.37058,-20.22642 1.34307,-3.82859 3.44561,-9.82895 4.67232,-13.33411 l 2.23038,-6.37303 -1.92299,-7.220721 c -1.05763,-3.971396 -2.84376,-9.049707 -3.96917,-11.285138 -3.76445,-7.477396 -20.00556,-20.879243 -29.00558,-23.934829 -21.95417,-7.453635 -40.93343,-2.237922 -55.77501,15.327599 -5.46812,6.47172 -5.9775,8.483085 -2.69326,10.634994 3.38773,2.219725 3.82601,5.733434 1.44646,11.596258 -1.62846,4.012277 -2.80736,5.447417 -5.67764,6.911727 -3.47272,1.77165 -4.83326,4.70093 -2.77441,5.97337 0.46642,0.28826 2.17694,2.87881 3.80116,5.75678 3.77003,6.68011 9.75461,13.175 14.2557,15.47129 1.93623,0.98779 3.69449,1.79598 3.90724,1.79598 0.21276,0 0.5929,-2.14458 0.84475,-4.76573 0.81919,-8.52545 5.84614,-10.89275 19.484,-9.17545 7.55698,0.95159 8.23483,0.88667 12.65625,-1.21213 4.28737,-2.03516 4.83552,-2.67914 6.66411,-7.82901 1.80168,-5.07409 1.87305,-6.01541 0.74535,-9.83018 -2.31046,-7.815752 -11.06511,-13.03571 -19.8446,-11.832346 -4.96608,0.680677 -8.06541,2.656789 -10.60066,6.758896 -2.27471,3.680569 -1.80988,6.30008 1.50316,8.47087 1.35965,0.89087 2.49576,2.79699 2.87637,4.82585 0.5234,2.78996 0.27395,3.64095 -1.48473,5.06505 -2.3163,1.87562 -6.67062,2.23817 -9.39155,0.78198 -2.16565,-1.15902 -3.2845,-5.63317 -2.91442,-11.65444 0.33821,-5.502673 5.20446,-13.557137 9.97038,-16.502637 4.38656,-2.711046 11.41574,-4.641377 16.94389,-4.653076 4.23456,-0.009 5.35294,0.443176 9.55869,3.864404 3.25153,2.645001 5.85959,5.961305 8.21851,10.450327 3.35095,6.376852 3.4407,6.805592 2.96694,14.172332 -0.92061,14.31487 -6.70289,23.43492 -18.97731,29.93174 -5.37703,2.84605 -6.10028,2.9773 -16.40625,2.9773 -12.98256,0 -16.06912,-1.14594 -25.91783,-9.62247 -5.25312,-4.52122 -7.26041,-7.05459 -9.94567,-12.55224 -1.85033,-3.78828 -3.88603,-8.68076 -4.52377,-10.87216 -1.73896,-5.97549 -4.20793,-5.46839 -10.23142,2.10145 -6.08723,7.64991 -24.17134,24.76133 -26.8916,25.44517 -1.12285,0.28227 -2.29086,1.16294 -2.5956,1.95705 -0.63908,1.66543 2.83872,7.78269 6.94456,12.21508 2.6586,2.87004 3.19757,3.04687 9.28688,3.04687 6.04864,0 6.65485,0.19473 9.42427,3.02737 3.42745,3.50567 4.24406,6.00282 3.58059,10.94935 -0.44404,3.31054 -0.17032,3.81452 4.04251,7.44337 2.48535,2.14083 4.65146,3.88857 4.81357,3.88387 0.16212,-0.005 3.92025,-3.49752 8.3514,-7.76183 l 8.05665,-7.75327 7.63308,-1.45479 c 9.86658,-1.88045 18.15637,-0.92424 25.94113,2.99229 8.48197,4.26729 12.66184,7.436 16.83812,12.76475 2.08279,2.65755 4.39524,4.86329 5.13879,4.90165 0.74355,0.0383 4.59842,-2.06166 8.56639,-4.66671 z m -88.48717,-32.4611 c -2.55817,-0.69539 -3.65322,-4.54963 -2.50457,-8.81537 1.0572,-3.92619 3.10813,-5.54962 7.01094,-5.54962 3.90344,0 5.94057,1.61496 7.15652,5.67342 1.00608,3.358 0.92301,4.04465 -0.7638,6.31283 -1.44362,1.94118 -2.76014,2.57989 -5.54894,2.69207 -2.01096,0.0809 -4.41851,-0.0601 -5.35015,-0.31336 z m 315.51289,31.80688 c 3.14665,-4.70856 8.27682,-9.85621 13.19513,-13.2401 6.60872,-4.54692 12.99678,-6.2179 23.61085,-6.17608 8.6683,0.0341 9.84927,0.26988 15.66666,3.12725 6.4161,3.15145 10.98387,7.38855 15.24922,14.14531 1.31389,2.08134 2.7448,3.78425 3.17981,3.78425 0.43501,0 2.79818,-1.53265 5.25148,-3.40589 l 4.46056,-3.40589 -0.62692,-5.54126 c -0.52758,-4.6632 -0.32038,-6.03726 1.30755,-8.67132 2.34182,-3.78913 5.69794,-5.27937 11.21738,-4.98092 3.86265,0.20886 4.32522,-0.0299 6.83032,-3.52597 6.36284,-8.87975 7.33311,-10.55763 6.82696,-11.80583 -0.29422,-0.72555 -3.13117,-2.79573 -6.30433,-4.60042 -6.23328,-3.54507 -10.60398,-7.25274 -20.16894,-17.10938 -5.99988,-6.18285 -10.08664,-8.10795 -10.94604,-5.15625 -2.88938,9.92385 -4.08255,12.73985 -7.09913,16.75453 -4.0731,5.42079 -4.90783,6.07703 -13.15782,10.34438 -5.98039,3.09338 -6.22536,3.13491 -18.24926,3.09343 -11.69788,-0.0403 -12.43682,-0.1609 -18.39357,-3.00086 -6.88077,-3.28051 -9.51225,-5.95007 -14.11104,-14.31526 -3.59877,-6.54617 -5.11185,-6.82417 -7.74757,-1.42351 -2.86465,5.86976 -3.05441,12.76028 -0.484,17.57432 1.63017,3.05305 2.1647,5.63616 2.22254,10.74034 0.0664,5.85701 -0.21218,7.0275 -2.16789,9.11 -1.23422,1.31424 -4.29281,3.07002 -6.79687,3.90174 -3.08289,1.02396 -4.55285,2.03024 -4.55285,3.11667 0,3.24688 13.44485,14.18235 17.4368,14.18235 1.27022,0 2.85997,-1.28454 4.35097,-3.51563 z m 70.55707,-28.42126 c -3.60522,-1.07491 -5.15734,-3.24483 -5.15734,-7.21018 0,-4.2309 1.30104,-6.41708 4.43333,-7.44948 4.46677,-1.47225 8.03549,-0.20521 9.7779,3.47155 2.17726,4.59438 1.316,9.05421 -2.08849,10.81474 -2.97107,1.5364 -3.05037,1.54065 -6.9654,0.37337 z m -187.26079,17.64001 c -0.60052,-1.82934 -6.33405,-2.09526 -6.33405,-0.29377 0,1.05652 0.93775,1.46565 3.35937,1.46565 2.26767,0 3.23437,-0.38082 2.97468,-1.17188 z m -31.74432,-9.84375 c 5.4369,-20.88997 6.37136,-31.17099 4.32935,-47.63208 -0.74937,-6.04076 -1.59788,-11.218587 -1.88558,-11.506287 -1.18577,-1.185769 -4.64516,3.865437 -6.7468,9.851287 -3.73909,10.64961 -3.86982,11.21874 -4.53773,19.75677 -0.47283,6.04421 -0.23569,10.37643 0.88653,16.19556 1.4216,7.37148 3.20752,14.4838 4.0546,16.14725 0.95369,1.8728 3.07918,0.33985 3.89963,-2.8125 z m 65.63671,-3.2289 c 2.45523,-7.27035 2.68433,-23.30752 0.48491,-33.94283 -1.21679,-5.88379 -5.54766,-16.13775 -9.39775,-22.250596 -1.32612,-2.105494 -3.04196,12.464066 -3.10621,26.375456 -0.0507,10.98142 0.25192,13.64874 2.28695,20.15625 3.77791,12.08077 5.20776,15.46875 6.52838,15.46875 0.68706,0 2.11945,-2.59636 3.20372,-5.80703 z M 506.25,150 c 1.58259,-1.58259 1.875,-3.125 1.875,-9.89031 0,-8.68764 0.59178,-10.44647 6.39316,-19.00114 2.34931,-3.46428 4.17794,-5.14465 5.99378,-5.50782 1.43718,-0.28743 2.65826,-0.78628 2.71349,-1.10854 0.0552,-0.32227 0.21798,-2.93597 0.36165,-5.80823 0.70592,-14.113104 11.47638,-24.341774 25.74751,-24.452319 7.7436,-0.05998 17.80229,5.682634 20.12601,11.490156 2.83865,7.094493 1.28659,16.246383 -3.15867,18.625413 -2.46241,1.31784 -8.79882,1.2184 -10.17693,-0.15971 -2.0713,-2.0713 -1.34363,-7.00444 1.34518,-9.11946 1.3586,-1.06867 3.20538,-1.94304 4.10395,-1.94304 4.98561,0 4.20504,-6.413522 -1.2089,-9.932875 -5.79436,-3.766647 -9.59275,-4.640121 -14.51557,-3.337983 -12.16311,3.217277 -17.52213,14.453958 -12.04474,25.255148 3.93464,7.75893 4.62538,8.06691 16.66773,7.43163 7.85876,-0.41459 11.26227,-0.22733 13.59673,0.74806 4.08597,1.70724 5.58077,4.92644 4.16858,8.97747 -0.5824,1.67068 -0.83547,3.26103 -0.56238,3.53414 0.81629,0.81628 7.20261,-1.81343 11.43836,-4.71002 6.20448,-4.24287 12.48342,-14.75759 12.4315,-20.81782 -0.009,-1.09532 -1.27501,-3.84796 -2.8125,-6.11695 -3.95093,-5.830697 -3.53655,-10.295269 1.32658,-14.292624 1.67189,-1.374246 1.79065,-1.879131 0.78101,-3.320067 -0.6549,-0.934648 -1.80707,-3.037772 -2.56037,-4.673611 -2.54332,-5.522981 -11.40565,-14.024643 -18.54887,-17.793995 l -6.76254,-3.568479 -12.1875,-0.01913 c -13.29616,-0.02088 -19.26272,1.355328 -30.52565,7.040836 -7.63302,3.853136 -17.88778,14.586005 -22.00459,23.030523 -2.93744,6.025341 -3.25206,7.457935 -3.33488,15.185111 -0.0892,8.31438 0.0204,8.76525 4.29356,17.66753 4.85375,10.11199 5.68955,16.23766 2.92421,21.43186 -3.20407,6.01827 -0.33722,9.60957 4.1161,5.15625 z m -90,-9.38181 c 7.80169,-2.98004 10.37719,-10.16145 6.61558,-18.44664 -2.23084,-4.91358 -5.83099,-6.85905 -12.69289,-6.85905 -5.81297,0 -9.99962,1.45868 -13.78886,4.8042 -3.40176,3.00342 -4.58628,6.55658 -3.88686,11.65931 0.50123,3.6569 1.13444,4.63483 4.50065,6.95085 7.00272,4.818 10.65191,5.17649 19.25238,1.89133 z m -283.34643,-1.4102 c 0.14786,-1.02534 0.74034,-3.42432 1.31659,-5.33107 1.24215,-4.11009 -0.0966,-8.31952 -3.31711,-10.42966 -1.11779,-0.7324 -3.053,-3.51078 -4.30047,-6.17419 -2.70679,-5.77911 -4.76324,-5.98484 -5.88439,-0.5887 -0.42347,2.03814 -1.28564,4.03335 -1.91594,4.43381 -1.90959,1.21326 -8.47677,0.83353 -11.33129,-0.6552 -2.96654,-1.54716 -5.28346,-1.82086 -5.28346,-0.62412 0,0.427 4.4384,3.25653 9.86311,6.28785 5.4247,3.03131 10.54182,6.5843 11.37136,7.89551 4.31071,6.81373 8.88595,9.31606 9.4816,5.18577 z m 27.21872,-0.54332 c 14.0214,-2.84894 13.83974,-2.54469 9.96334,-16.6868 -3.08672,-11.26115 -3.531,-29.78768 -0.94671,-39.47787 1.65468,-6.204471 9.25822,-20.428523 11.34905,-21.230851 1.3524,-0.518965 4.799,-6.607171 4.12306,-7.283118 -0.90471,-0.904705 -7.01785,-0.768955 -11.17353,0.248121 -2.32031,0.567881 -7.48987,1.042825 -11.4879,1.05543 l -7.26915,0.02292 -4.90029,7.48476 c -5.34312,8.161122 -7.66663,9.692607 -16.47878,10.861582 -10.86904,1.441828 -19.86388,-6.591074 -19.86388,-17.739567 0,-3.994486 2.65747,-8.90329 6.29197,-11.6224 2.19698,-1.643636 8.28407,-1.461899 10.04591,0.299932 3.21779,3.217795 2.67037,9.955935 -0.92081,11.333997 -2.31191,0.887164 -6.04207,-1.260924 -6.04207,-3.479446 0,-1.36401 -0.50111,-1.868682 -1.64062,-1.652292 -1.23027,0.233622 -1.71121,1.401504 -1.92282,4.669167 -0.2429,3.7511 0.12342,4.819566 2.63189,7.676561 2.24353,2.555239 3.90448,3.467466 7.21827,3.964399 8.63297,1.294594 19.96328,-4.657592 19.96328,-10.487371 0,-1.745756 -0.98625,-2.722689 -4.45313,-4.411042 -7.37414,-3.59118 -8.65836,-4.66469 -11.5077,-9.619545 -3.27775,-5.69983 -4.3902,-13.218499 -2.8185,-19.049165 1.48021,-5.491294 0.19703,-6.719013 -7.68376,-7.351608 -6.42867,-0.516031 -14.04867,1.515741 -21.2403,5.663446 -4.85061,2.797538 -11.590833,8.808306 -13.23411,11.801857 -0.773438,1.408968 -2.523507,4.010473 -3.889043,5.781122 -1.561462,2.0247 -2.701456,4.958831 -3.072044,7.906863 -0.324087,2.578125 -0.827453,6.659905 -1.118591,9.070622 -0.291139,2.410717 -0.12461,5.106337 0.370061,5.990267 0.801233,1.431723 1.185659,1.285871 3.521977,-1.336247 C 86.721345,57.943843 90,57.14639 90,59.593802 c 0,0.807841 -1.057575,2.855354 -2.350166,4.550029 -3.331073,4.367261 -4.546543,11.983216 -3.319934,20.802209 1.137677,8.1796 2.78484,10.970747 9.700056,16.43691 6.797254,5.37291 10.589824,7.02342 17.766824,7.73199 5.30507,0.52376 7.0834,0.29981 11.00062,-1.38532 4.33885,-1.86654 5.12559,-1.9255 11.01571,-0.82562 7.44085,1.38945 15.37912,6.00205 17.54817,10.19653 1.8091,3.49843 1.88884,12.45881 0.14095,15.83886 -0.72065,1.39359 -2.19721,3.33645 -3.28125,4.3175 -2.92221,2.64457 -2.60203,4.67167 0.60714,3.84381 1.41797,-0.36579 6.50035,-1.46201 11.29417,-2.43603 z m 519.95728,0.45378 c 2.4876,-0.95458 1.67055,-2.12066 -2.21992,-3.16826 -9.85244,-2.65298 -11.29234,-17.94879 -2.21761,-23.55729 5.60578,-3.46456 12.08109,-4.55746 27.07249,-4.56927 12.18765,-0.01 14.65207,-0.26782 18.00159,-1.88613 2.13444,-1.03125 4.2176,-1.89084 4.62921,-1.9102 2.44447,-0.11497 7.80132,-6.661438 9.94399,-12.1523 3.30587,-8.471649 3.84171,-13.072283 2.04541,-17.561653 C 735.91779,70.772066 731.45969,67.5 728.05174,67.5 c -0.69282,0 -1.73839,-0.576839 -2.32351,-1.281863 -0.80884,-0.974592 -0.72645,-1.561879 0.34369,-2.450014 1.89015,-1.568689 7.26586,-0.497814 9.41342,1.875213 2.24258,2.478016 4.02136,2.341695 5.27241,-0.404062 1.61288,-3.539876 -1.40342,-18.265779 -5.46633,-26.687233 -3.90387,-8.091793 -14.67211,-20.103562 -19.34881,-21.583225 -5.81398,-1.839489 -17.45102,-2.92638 -21.53434,-2.01129 -7.64705,1.713743 -10.97077,3.595261 -10.97077,6.210437 0,1.316041 0.47398,3.278444 1.05329,4.360894 3.06104,5.719615 -0.5521,15.959891 -7.31259,20.725121 -2.22926,1.571328 -4.0532,3.376193 -4.0532,4.010811 0,0.634618 1.05469,2.407276 2.34375,3.93924 1.28906,1.531963 2.34375,3.243258 2.34375,3.802876 0,1.999534 7.82623,5.133068 12.97576,5.19535 4.50326,0.05447 5.28142,-0.246548 7.73437,-2.991888 4.77277,-5.341649 2.8444,-9.363375 -3.10746,-6.480802 -3.40794,1.650517 -5.86426,0.848663 -6.84258,-2.233731 -1.79447,-5.653866 3.81682,-10.271459 10.01924,-8.244953 7.55914,2.469783 9.8338,11.037546 4.53317,17.074637 -1.54688,1.761793 -2.8125,3.62639 -2.8125,4.143549 0,3.150689 -8.96553,4.940953 -16.8485,3.36436 -3.38749,-0.677501 -11.67547,-8.358826 -12.72184,-11.790652 -1.51627,-4.972949 -2.37436,-5.234643 -15.42839,-4.705195 -8.66352,0.351376 -12.91632,0.151035 -14.9852,-0.705924 -1.58878,-0.658094 -3.11496,-0.970267 -3.39151,-0.693719 -0.27654,0.27655 1.03018,2.511145 2.90383,4.965768 4.52678,5.930396 7.3311,11.627201 9.78375,19.875067 1.79789,6.046011 1.98516,8.517678 1.66917,22.031247 -0.37552,16.059781 -2.35023,26.709921 -6.43818,34.722971 -2.84233,5.57142 -2.07889,6.27097 6.91183,6.33354 4.27008,0.0297 9.45129,0.40308 11.51379,0.82969 4.57286,0.94586 14.76608,1.20207 16.79832,0.42223 z m -494.58065,-8.57158 c 2.39408,-1.93359 5.19481,-4.05268 6.22385,-4.70909 1.02904,-0.6564 3.24207,-2.06916 4.91785,-3.13947 1.67579,-1.07031 3.04688,-2.54133 3.04688,-3.26893 0,-0.7276 2.95312,-4.50786 6.5625,-8.40058 3.60937,-3.89272 6.5625,-7.67459 6.5625,-8.40416 0,-0.72957 -1.18791,-1.94078 -2.63979,-2.691574 -1.45188,-0.750807 -3.74695,-2.976479 -5.10014,-4.94595 -3.55669,-5.176535 -7.26007,-17.010541 -7.26007,-23.199288 0,-2.873931 -0.31641,-5.205793 -0.70313,-5.181917 -0.38671,0.02388 -1.96875,1.750277 -3.51562,3.836447 -1.54688,2.08617 -4.52903,5.758041 -6.627,8.159714 -3.79564,4.345089 -8.23581,11.306239 -10.47823,16.427437 -1.42606,3.2568 -1.59203,22.675921 -0.23852,27.908601 0.51562,1.99341 1.37631,5.31189 1.91263,7.37439 0.53633,2.0625 1.427,3.75 1.97927,3.75 0.55227,0 2.96293,-1.58203 5.35702,-3.51563 z m 452.37494,-0.46875 c 5.3474,-8.32705 3.37566,-35.572251 -3.20548,-44.292668 -1.55827,-2.064811 -4.82731,-6.807808 -7.26455,-10.539993 -4.07694,-6.243106 -6.35715,-8.479632 -7.49016,-7.346632 -0.24363,0.243628 0.0277,1.793074 0.60294,3.443214 2.9769,8.539542 -0.91849,22.244361 -8.56349,30.128199 -2.44921,2.52573 -4.45312,5.10901 -4.45312,5.74061 0,1.54244 15.54842,16.62885 19.72951,19.14326 1.8278,1.0992 4.31813,2.86138 5.53407,3.91597 2.80014,2.42854 3.44298,2.40439 5.11028,-0.19196 z m 64.74111,-1.60956 c 4.42823,-1.9109 14.65731,-8.41942 17.15006,-10.91215 0.64485,-0.64486 1.17247,-1.62449 1.17247,-2.17694 0,-1.59419 -2.80763,-1.17715 -7.43839,1.10491 -3.65307,1.80024 -5.79168,2.10937 -14.59286,2.10937 -12.29026,0 -14.53125,0.87257 -14.53125,5.65798 0,2.06283 0.72766,3.97593 1.99388,5.24215 1.68354,1.68354 2.7415,1.91496 6.79688,1.48678 2.64165,-0.27893 6.89379,-1.40937 9.44921,-2.5121 z M 394.42188,113.81487 c 1.75594,-1.33932 4.64342,-2.83571 6.41662,-3.32531 4.07583,-1.12539 4.17324,-3.14364 0.41067,-8.50902 -3.5322,-5.036928 -3.70219,-7.299246 -1.15406,-15.359237 4.63691,-14.666948 7.36569,-31.308803 5.13374,-31.308803 -0.38975,0 -1.29267,1.371094 -2.00648,3.046875 -1.55079,3.640717 -7.04226,15.037672 -9.14737,18.984375 -0.82507,1.546875 -2.60433,3.997759 -3.95391,5.446407 -2.74291,2.944275 -2.83025,4.416858 -1.20601,20.334843 0.49983,4.89844 0.94841,9.85547 0.99685,11.01563 0.11209,2.68462 0.61033,2.64863 4.50995,-0.32576 z m 33.5246,-3.42424 c 0.34681,-3.22266 1.26077,-9.0824 2.03101,-13.021646 1.58458,-8.103993 0.79726,-13.253773 -2.45154,-16.035487 -1.04552,-0.895205 -1.90095,-2.21293 -1.90095,-2.928279 0,-0.715349 -0.5633,-1.768127 -1.25177,-2.339507 -0.68847,-0.57138 -1.80867,-2.726315 -2.48933,-4.788744 -0.68067,-2.062428 -2.01581,-4.454164 -2.96698,-5.314969 -0.95118,-0.860805 -1.72942,-2.080871 -1.72942,-2.711257 0,-0.630386 -0.6412,-1.678312 -1.42491,-2.328722 -1.26157,-1.047014 -1.35347,-0.388546 -0.80179,5.744584 0.61016,6.78321 1.27425,9.774451 4.62514,20.832838 l 1.65697,5.468192 -2.96521,7.252287 c -1.63086,3.98876 -2.95913,7.64527 -2.95169,8.12557 0.007,0.48029 2.1168,2.03329 4.6875,3.45111 2.57069,1.41782 4.67399,2.99985 4.67399,3.51563 0,0.51577 0.59139,0.93777 1.3142,0.93777 0.91983,0 1.50343,-1.75833 1.94478,-5.85937 z M 231.04964,97.349512 c 1.9354,-0.881831 2.38786,-1.748268 2.38786,-4.572703 0,-6.468562 -3.87651,-6.810754 -4.90588,-0.433059 -0.24967,1.546875 -0.76968,3.550781 -1.15558,4.453125 -0.82441,1.927678 0.28833,2.095078 3.6736,0.552637 z M 391.3947,69.609375 c 6.32097,-10.722221 10.88984,-19.546916 12.10916,-23.388668 0.57411,-1.808842 0.39391,-1.789976 -4.08777,0.427982 -3.87582,1.918122 -5.44716,2.206449 -9.06672,1.663662 -3.60888,-0.541184 -5.22519,-1.507821 -9.19664,-5.50009 -3.83341,-3.853509 -5.43409,-6.483006 -7.83119,-12.864621 -4.41346,-11.74959 -11.76912,-17.692065 -21.95825,-17.739551 -5.05279,-0.02355 -14.80079,3.28887 -14.80079,5.029383 0,0.64089 1.37109,1.822986 3.04687,2.626879 5.4668,2.622488 25.17131,21.696275 27.90383,27.010649 0.66281,1.289062 3.07792,5.226502 5.36692,8.749864 2.28901,3.523363 4.83031,8.374925 5.64735,10.78125 0.81704,2.406325 2.25446,5.640761 3.19427,7.187636 0.93981,1.546875 1.71033,3.761719 1.71225,4.921875 0.002,1.160156 0.33274,2.109375 0.73513,2.109375 0.4024,0 3.65391,-4.957031 7.22558,-11.015625 z M 435,77.4158 c 0,-2.477903 10.54671,-21.69555 15.43568,-28.126088 8.2402,-10.838433 24.78731,-26.26704 31.67369,-29.532709 2.44922,-1.16147 4.45313,-2.463288 4.45313,-2.892929 0,-1.227758 -5.48093,-2.656428 -12.8126,-3.339755 -6.36906,-0.59361 -6.98665,-0.472991 -11.86289,2.316912 -8.15114,4.663611 -11.38173,8.501054 -16.02913,19.04016 -3.87996,8.798732 -11.7965,13.149479 -20.14275,11.069989 -5.69744,-1.419533 -8.05437,-3.051449 -10.88635,-7.537596 -1.29377,-2.049457 -2.97982,-3.726284 -3.74679,-3.726284 -1.89292,0 -1.75482,1.815281 0.31636,4.158327 0.94096,1.064483 2.28333,3.833861 2.98303,6.154173 1.71409,5.684172 10.54097,22.820018 13.49315,26.194599 0.70329,0.803908 1.56716,2.408372 1.91975,3.565476 C 431.05821,78.908084 435,80.919008 435,77.4158 Z M 348.91216,54.288214 c 2.54384,-1.36142 2.09741,-2.572658 -1.59762,-4.3347 -5.94841,-2.836599 -5.38227,-9.794336 0.89275,-10.971535 1.84537,-0.346192 3.35521,-1.08077 3.35521,-1.632394 0,-1.228991 -6.32816,-7.196183 -8.90625,-8.398226 -1.03125,-0.480823 -3.30848,-1.918142 -5.06051,-3.194041 -5.96434,-4.34346 -8.7792,-2.894112 -11.50799,5.925367 -1.22369,3.954968 -1.40863,6.227556 -0.77755,9.555182 1.50364,7.928691 2.89419,9.792586 10.3148,13.826074 2.50389,1.360996 10.12614,0.915997 13.28716,-0.775727 z m 139.60246,-1.700217 c 6.06655,-2.699547 9.04631,-6.654353 9.84795,-13.070415 0.58491,-4.681574 0.36276,-5.801367 -2.05653,-10.366085 -3.73126,-7.040129 -4.98059,-7.634434 -10.13256,-4.820052 -2.29028,1.251117 -5.7764,3.655335 -7.74693,5.342706 l -3.5828,3.067949 2.51709,0.0352 c 4.49095,0.0628 7.11378,1.619261 7.77099,4.611495 1.36695,6.223685 -4.3391,9.412876 -10.27623,5.743529 -5.60291,-3.462792 -10.25475,0.216329 -7.38198,5.838379 3.15029,6.165175 11.9252,7.673725 21.041,3.617294 z M 662.8125,26.71875 c 0.68577,-0.82631 2.76291,-1.414847 5.03666,-1.427096 5.02666,-0.02707 9.03799,-2.869479 7.52255,-5.330412 -0.7548,-1.225721 -2.45617,-1.755726 -6.29201,-1.960075 -4.86822,-0.259344 -5.51949,-0.03997 -8.79616,2.962875 -3.50306,3.210315 -3.52084,3.262675 -1.76581,5.201957 2.10959,2.331067 2.75044,2.413547 4.29477,0.552751 z M 156.02164,24.129631 c 0.72591,-2.064128 0.52623,-3.078729 -1.01305,-5.147142 -1.58857,-2.134674 -2.74452,-2.624808 -6.74414,-2.859608 -4.28486,-0.251544 -4.82695,-0.07439 -4.82695,1.57745 0,1.023449 0.8063,2.116725 1.79177,2.429502 0.98547,0.312776 2.9232,2.052072 4.30606,3.865102 2.90432,3.807748 5.17796,3.854963 6.48631,0.134696 z"
     id="path3426"
     inkscape:connector-curvature="0" />
</svg>
